<svg width="100" height="99" viewBox="0 0 100 99" fill="none" xmlns="http://www.w3.org/2000/svg">
<g opacity="0.8">
<path d="M9.87187 40.7946C9.68041 39.12 9.57987 37.4007 9.57987 35.6368C9.57987 22.991 19.7702 12.7598 32.3341 12.7598C39.7415 12.7598 46.3714 16.3612 50.5048 21.9269C54.6382 16.3612 61.2271 12.7598 68.6754 12.7598C81.2394 12.7598 91.4297 22.991 91.4297 35.6368C91.4297 64.2842 64.9103 81.1862 53.0421 85.2378C51.6507 85.7289 49.3589 85.7289 47.9674 85.2378C39.3657 82.3013 23.0677 72.6146 14.748 56.5982" stroke="#F8F8F8" stroke-width="6.13874" stroke-linecap="round" stroke-linejoin="round"/>
<path opacity="0.4" d="M73.5098 49.1841L65.5187 49.1841L57.5275 39.8008L49.5364 61.7761L41.5453 44.0168L33.5542 49.1841L25.5631 49.1841L14.4634 49.1841" stroke="white" stroke-width="6.13874" stroke-miterlimit="10" stroke-linecap="round" stroke-linejoin="round"/>
</g>
</svg>
