<svg width="89" height="88" viewBox="0 0 89 88" fill="none" xmlns="http://www.w3.org/2000/svg">
<g opacity="0.8">
<path fill-rule="evenodd" clip-rule="evenodd" d="M21.8505 59.0715L28.5031 47.5616L29.0301 46.6497L29.8688 45.1986L29.9604 45.0402L30.3583 44.3517C31.4676 42.3891 34.5822 43.3704 34.2409 45.6743L34.1515 46.4957L34.1466 46.5412L33.9559 48.2933L33.8453 49.3096L33.3512 53.8503C32.0209 66.0759 31.3558 72.1887 34.351 75.6242C35.2865 76.6972 36.4321 77.5669 37.717 78.1795C39.8122 79.1785 42.3209 79.0766 45.7865 78.1327C44.5155 76.635 43.4027 74.9988 42.474 73.2499C40.8596 73.5241 40.2934 73.3148 40.0842 73.215C39.4782 72.9261 38.9379 72.5159 38.4967 72.0098C38.2996 71.7838 37.7654 71.0317 37.7286 67.9675C37.6918 64.8935 38.138 60.7031 38.819 54.4453L39.7 46.3483C40.2461 42.2174 37.5462 39.171 34.5637 38.1889C31.6351 37.2246 27.648 38.0028 25.5867 41.6164L17.0887 56.3192C16.2753 57.7266 14.5842 58.3679 13.0421 57.8539C11.683 57.4009 10.7497 56.1495 10.703 54.7177L9.87637 29.3708C9.88656 29.1877 9.96125 28.8269 10.338 28.2412C10.7645 27.5782 11.4641 26.8123 12.4455 25.9968C15.7834 23.2229 17.3689 17.8157 15.0648 13.5859H38.5073H38.5075C44.2895 13.5862 49.8775 15.6717 54.2458 19.4598C58.4118 23.0723 61.2021 28.0022 62.1619 33.4157C63.6292 33.1725 65.136 33.046 66.6723 33.046C67.0092 33.046 67.3448 33.0521 67.6788 33.0642C66.6049 26.1726 63.1246 19.8791 57.8491 15.3045C52.4806 10.6492 45.6133 8.0862 38.5075 8.08594H11.2618C7.59536 8.08594 6.07877 12.7836 9.05305 14.9275C11.3116 16.5554 11.0716 19.9873 8.93032 21.7667C6.42322 23.8501 4.375 26.4629 4.375 29.4187L5.20594 54.897C5.32766 58.6291 7.76032 61.8908 11.3028 63.0716C15.3225 64.4115 19.7302 62.74 21.8505 59.0715Z" fill="url(#paint0_linear_91_6266)"/>
<path d="M66.2648 58.3389V61.0889H69.0148H81.5665C81.5845 61.0889 81.6213 61.0952 81.6641 61.1379C81.7068 61.1807 81.7131 61.2175 81.7131 61.2354C81.7131 61.2534 81.7068 61.2902 81.6641 61.333C81.6213 61.3757 81.5845 61.382 81.5665 61.382H69.0148H66.2648V64.132V76.6837C66.2648 76.7017 66.2586 76.7385 66.2158 76.7812C66.173 76.824 66.1362 76.8303 66.1183 76.8303C66.1003 76.8303 66.0635 76.824 66.0207 76.7812C65.978 76.7385 65.9717 76.7017 65.9717 76.6837V64.132V61.382H63.2217H50.67C50.652 61.382 50.6152 61.3757 50.5725 61.333C50.5297 61.2902 50.5234 61.2534 50.5234 61.2354C50.5234 61.2175 50.5297 61.1807 50.5725 61.1379C50.6152 61.0952 50.652 61.0889 50.67 61.0889H63.2217H65.9717V58.3389V45.7872C65.9717 45.7692 65.978 45.7324 66.0207 45.6897C66.0635 45.6469 66.1003 45.6406 66.1183 45.6406C66.1362 45.6406 66.173 45.6469 66.2158 45.6897C66.2586 45.7324 66.2648 45.7692 66.2648 45.7872V58.3389Z" fill="url(#paint1_linear_91_6266)" stroke="url(#paint2_linear_91_6266)" stroke-width="5.5"/>
</g>
<defs>
<linearGradient id="paint0_linear_91_6266" x1="74.0024" y1="15.3321" x2="-2.33747" y2="50.1479" gradientUnits="userSpaceOnUse">
<stop stop-color="#3AC2C2"/>
<stop offset="1" stop-color="#18B5D6"/>
</linearGradient>
<linearGradient id="paint1_linear_91_6266" x1="88.1281" y1="46.6457" x2="45.7149" y2="68.2793" gradientUnits="userSpaceOnUse">
<stop stop-color="#3AC2C2"/>
<stop offset="1" stop-color="#18B5D6"/>
</linearGradient>
<linearGradient id="paint2_linear_91_6266" x1="88.1281" y1="46.6457" x2="45.7149" y2="68.2793" gradientUnits="userSpaceOnUse">
<stop stop-color="#3AC2C2"/>
<stop offset="1" stop-color="#18B5D6"/>
</linearGradient>
</defs>
</svg>
