<svg width="100" height="99" viewBox="0 0 100 99" fill="none" xmlns="http://www.w3.org/2000/svg">
<g opacity="0.8">
<path d="M50.0191 49.5987C61.3202 49.5987 70.4815 40.4374 70.4815 29.1363C70.4815 17.8352 61.3202 8.67383 50.0191 8.67383C38.718 8.67383 29.5566 17.8352 29.5566 29.1363C29.5566 40.4374 38.718 49.5987 50.0191 49.5987Z" stroke="#F8F8F8" stroke-width="6.13874" stroke-linecap="round" stroke-linejoin="round"/>
<path opacity="0.4" d="M14.8652 90.5224C14.8652 74.6845 30.6213 61.875 50.0197 61.875C53.9485 61.875 57.7546 62.407 61.315 63.3892" stroke="#F8F8F8" stroke-width="6.13874" stroke-linecap="round" stroke-linejoin="round"/>
<path d="M90.945 74.1532C90.945 75.4628 90.7813 76.7314 90.4539 77.9592C90.0856 79.5961 89.4308 81.1922 88.5714 82.5837C85.7476 87.331 80.5501 90.5231 74.575 90.5231C70.3598 90.5231 66.5537 88.9269 63.689 86.3077C62.4613 85.2437 61.3972 83.9751 60.5787 82.5837C59.0644 80.1282 58.2051 77.2225 58.2051 74.1532C58.2051 69.7333 59.9649 65.6818 62.8296 62.7352C65.8171 59.6658 69.9915 57.7832 74.575 57.7832C79.4042 57.7832 83.7831 59.8704 86.7297 63.2263C89.3489 66.132 90.945 69.9788 90.945 74.1532Z" stroke="#F8F8F8" stroke-width="6.13874" stroke-miterlimit="10" stroke-linecap="round" stroke-linejoin="round"/>
<path d="M80.6702 74.0742H68.4746" stroke="#F8F8F8" stroke-width="6.13874" stroke-miterlimit="10" stroke-linecap="round" stroke-linejoin="round"/>
<path d="M74.5742 68.0957V80.3322" stroke="#F8F8F8" stroke-width="6.13874" stroke-miterlimit="10" stroke-linecap="round" stroke-linejoin="round"/>
</g>
</svg>
