<svg width="96" height="96" viewBox="0 0 96 96" fill="none" xmlns="http://www.w3.org/2000/svg">
<path d="M72.5599 83.4499C67.8826 87.984 62.7757 87.2681 57.8598 85.1203C52.6574 82.9249 47.8847 82.8294 42.396 85.1203C35.5232 88.0795 31.8959 87.2204 27.7914 83.4499C4.50027 59.4429 7.93666 22.8835 34.3778 21.5472C40.821 21.8813 45.3074 25.079 49.0779 25.3654C54.7097 24.2199 60.103 20.9267 66.1166 21.3563C73.3235 21.929 78.7645 24.7926 82.344 29.9472C67.453 38.8723 70.9849 58.4883 84.6349 63.977C81.9145 71.1362 78.3826 78.2476 72.5121 83.4976L72.5599 83.4499ZM48.6006 21.2608C47.8847 10.6175 56.5234 1.83566 66.4507 0.976562C67.8348 13.2903 55.2825 22.454 48.6006 21.2608Z" fill="#212851"/>
</svg>
