<svg width="43" height="39" viewBox="0 0 43 39" fill="none" xmlns="http://www.w3.org/2000/svg">
<path d="M41.8493 16.686L26.8868 1.72345C25.4404 0.277078 23.0464 0.277078 21.6 1.72345C20.1536 3.16983 20.1536 5.56383 21.6 7.01021L30.1785 15.5887H4.29336C2.24849 15.5887 0.552734 17.2845 0.552734 19.3293C0.552734 21.3742 2.24849 23.07 4.29336 23.07H30.1785L21.6 31.6485C20.1536 33.0949 20.1536 35.4889 21.6 36.9352C22.3481 37.6834 23.2958 38.0325 24.2434 38.0325C25.191 38.0325 26.1386 37.6834 26.8868 36.9352L41.8493 21.9727C43.2957 20.5264 43.2957 18.1323 41.8493 16.686Z" fill="white"/>
</svg>
