<svg width="57" height="57" viewBox="0 0 57 57" fill="none" xmlns="http://www.w3.org/2000/svg">
<path d="M1.56641 7.37907C1.56641 3.51307 4.70039 0.378906 8.56638 0.378906C9.92602 0.378906 11.2917 0.378906 12.6668 0.378906C14.5233 0.378906 16.5153 1.10698 16.6181 2.96064C16.6399 3.35406 16.6577 3.83375 16.6799 4.42993C16.6798 5.77882 16.6741 7.12771 16.6641 8.47656C16.6626 9.18542 16.6612 9.89428 16.6598 10.6246C16.6542 12.8969 16.6416 15.1691 16.6289 17.4414C16.6239 18.9785 16.6193 20.5156 16.6152 22.0527C16.6113 23.5066 16.606 24.9604 16.5998 26.4142C16.5836 30.2664 13.4539 33.3789 9.60166 33.3789C9.25694 33.3789 8.91188 33.3789 8.56644 33.3789C4.70045 33.3789 1.56641 30.2449 1.56641 26.3789C1.56641 20.0902 1.56641 13.778 1.56641 7.37907Z" fill="url(#paint0_linear_2_3619)"/>
<path d="M41.5664 7.37897C41.5664 3.51298 44.7004 0.378906 48.5664 0.378906C49.926 0.378906 51.2917 0.378906 52.6668 0.378906C54.5233 0.378906 56.5182 1.10651 56.6207 2.96019C56.6414 3.33295 56.6587 3.78358 56.6799 4.33813C56.6747 5.63163 56.6695 6.92512 56.6641 8.25781C56.6626 8.94448 56.6612 9.63114 56.6598 10.3386C56.6542 12.5396 56.6416 14.7405 56.6289 16.9414C56.6239 18.4303 56.6193 19.9193 56.6152 21.4082C56.6115 22.7439 56.6065 24.0797 56.6008 25.4154C56.5842 29.2671 53.4546 32.3789 49.6028 32.3789C49.2577 32.3789 48.9123 32.3789 48.5664 32.3789C44.7005 32.3789 41.5664 29.2449 41.5664 25.3789C41.5664 19.4204 41.5664 13.4395 41.5664 7.37897Z" fill="url(#paint1_linear_2_3619)"/>
<path d="M21.5664 7.37897C21.5664 3.51298 24.7004 0.378906 28.5664 0.378906C29.926 0.378906 31.2917 0.378906 32.6668 0.378906C34.5233 0.378906 36.5182 1.10651 36.6207 2.96019C36.6414 3.33295 36.6587 3.78358 36.6799 4.33813C36.6747 5.63163 36.6695 6.92512 36.6641 8.25781C36.6626 8.94448 36.6612 9.63114 36.6598 10.3386C36.6542 12.5396 36.6416 14.7405 36.6289 16.9414C36.6239 18.4303 36.6193 19.9193 36.6152 21.4082C36.6115 22.7439 36.6065 24.0797 36.6008 25.4154C36.5842 29.2671 33.4546 32.3789 29.6028 32.3789C29.2577 32.3789 28.9123 32.3789 28.5664 32.3789C24.7005 32.3789 21.5664 29.2449 21.5664 25.3789C21.5664 19.4204 21.5664 13.4395 21.5664 7.37897Z" fill="#3AC2C2"/>
<path d="M1.19092 54.877C0.875345 53.6147 1.8268 52.3789 3.12794 52.3789C19.9253 52.3789 36.7439 52.3789 54.0045 52.3789C55.3056 52.3789 56.2645 53.5864 55.949 54.8487C55.7264 55.7391 54.9226 56.3789 54.0049 56.3789C37.2106 56.3789 20.4023 56.3789 3.12809 56.3789C2.21035 56.3789 1.4135 55.7673 1.19092 54.877Z" fill="#212851"/>
<path d="M20.4688 44.3125C20.5227 40.4853 23.6409 37.3789 27.4685 37.3789C28.82 37.3789 30.1761 37.3789 31.5393 37.3789C34.3157 37.3789 36.5664 39.592 36.5664 42.3684C36.5664 45.1236 34.3488 47.4034 31.5937 47.4243C30.7721 47.4305 29.9505 47.4362 29.1289 47.4414C28.4219 47.4498 27.7148 47.4582 26.9863 47.4668C26.1066 47.471 25.2269 47.4627 24.3473 47.447C22.561 47.4151 20.5967 46.7174 20.4994 44.9335C20.4894 44.7495 20.4797 44.544 20.4688 44.3125Z" fill="#212851"/>
<path d="M40.4966 43.8429C40.4613 40.2578 43.4458 37.3789 47.0311 37.3789C48.0514 37.3789 49.0741 37.3789 50.1003 37.3789C53.6857 37.3789 56.7196 41.3389 56.6251 44.923C56.582 46.5545 55.9738 47.281 54.3471 47.4127C53.8807 47.4505 53.271 47.4764 52.4408 47.5117C51.162 47.5091 49.8833 47.5066 48.5658 47.5039C47.287 47.5065 46.0083 47.5091 44.6908 47.5117C43.8605 47.4764 43.2509 47.4505 42.7844 47.4127C41.1578 47.281 40.5127 45.4748 40.4966 43.8429Z" fill="#212851"/>
<path d="M0.496639 43.8429C0.461294 40.2578 3.44576 37.3789 7.03109 37.3789C8.05137 37.3789 9.07406 37.3789 10.1003 37.3789C13.6857 37.3789 16.7196 41.3389 16.6251 44.923C16.582 46.5545 15.9738 47.281 14.3471 47.4127C13.8807 47.4505 13.271 47.4764 12.4408 47.5117C11.162 47.5091 9.88328 47.5066 8.56578 47.5039C7.28703 47.5065 6.00828 47.5091 4.69078 47.5117C3.86053 47.4764 3.25086 47.4505 2.78441 47.4127C1.15776 47.281 0.512728 45.4748 0.496639 43.8429Z" fill="#212851"/>
<defs>
<linearGradient id="paint0_linear_2_3619" x1="18.1897" y1="3.75639" x2="-2.68773" y2="8.63341" gradientUnits="userSpaceOnUse">
<stop stop-color="#3AC2C2"/>
<stop offset="1" stop-color="#18B5D6"/>
</linearGradient>
<linearGradient id="paint1_linear_2_3619" x1="58.1897" y1="3.65404" x2="37.3806" y2="8.66701" gradientUnits="userSpaceOnUse">
<stop stop-color="#3AC2C2"/>
<stop offset="1" stop-color="#18B5D6"/>
</linearGradient>
</defs>
</svg>
