<svg width="78" height="77" viewBox="0 0 78 77" fill="none" xmlns="http://www.w3.org/2000/svg">
<path d="M22.2968 70.2168H55.6864C64.4799 70.2168 67.9845 64.8324 68.3987 58.2692L70.0555 31.9525C70.5015 25.0707 65.0215 19.2402 58.1078 19.2402C56.1643 19.2402 54.3802 18.1251 53.4881 16.4047L51.1941 11.7849C49.7286 8.88562 45.9053 6.49609 42.6556 6.49609H35.3595C32.0779 6.49609 28.2547 8.88562 26.7891 11.7849L24.4952 16.4047C23.6031 18.1251 21.8189 19.2402 19.8754 19.2402C12.9617 19.2402 7.48172 25.0707 7.92777 31.9525L9.58451 58.2692C9.96683 64.8324 13.5033 70.2168 22.2968 70.2168Z" stroke="white" stroke-width="4.77905" stroke-linecap="round" stroke-linejoin="round"/>
<path opacity="0.4" d="M34.2109 25.6133H43.769" stroke="white" stroke-width="4.77905" stroke-linecap="round" stroke-linejoin="round"/>
<path opacity="0.4" d="M38.9894 57.4749C44.6924 57.4749 49.344 52.8232 49.344 47.1202C49.344 41.4172 44.6924 36.7656 38.9894 36.7656C33.2864 36.7656 28.6348 41.4172 28.6348 47.1202C28.6348 52.8232 33.2864 57.4749 38.9894 57.4749Z" stroke="white" stroke-width="4.77905" stroke-linecap="round" stroke-linejoin="round"/>
</svg>
