<svg width="89" height="89" viewBox="0 0 89 89" fill="none" xmlns="http://www.w3.org/2000/svg">
<path d="M66.347 40.3633V54.9772C66.347 55.9271 66.3105 56.8404 66.2009 57.7172C65.3606 67.5816 59.5516 72.4771 48.847 72.4771H47.3856C46.4723 72.4771 45.5954 72.9156 45.0474 73.6462L40.6633 79.4918C38.727 82.0857 35.5849 82.0857 33.6486 79.4918L29.2644 73.6462C28.7895 73.0252 27.73 72.4771 26.9263 72.4771H25.4649C13.8104 72.4771 7.96484 69.591 7.96484 54.9772V40.3633C7.96484 29.6587 12.897 23.8497 22.7248 23.0095C23.6016 22.8998 24.515 22.8633 25.4649 22.8633H48.847C60.5015 22.8633 66.347 28.7088 66.347 40.3633Z" stroke="white" stroke-width="5.48018" stroke-miterlimit="10" stroke-linecap="round" stroke-linejoin="round"/>
<path d="M80.9587 25.754V40.3678C80.9587 51.1089 76.0265 56.8814 66.1987 57.7217C66.3083 56.8448 66.3449 55.9315 66.3449 54.9816V40.3678C66.3449 28.7133 60.4993 22.8677 48.8448 22.8677H25.4627C24.5128 22.8677 23.5995 22.9043 22.7227 23.0139C23.563 13.1861 29.3719 8.25391 40.0766 8.25391H63.4586C75.1131 8.25391 80.9587 14.0995 80.9587 25.754Z" stroke="white" stroke-width="5.48018" stroke-miterlimit="10" stroke-linecap="round" stroke-linejoin="round"/>
<path opacity="0.4" d="M49.9665 49.3541H49.9994" stroke="white" stroke-width="7.3069" stroke-linecap="round" stroke-linejoin="round"/>
<path opacity="0.4" d="M37.1775 49.3541H37.2104" stroke="white" stroke-width="7.3069" stroke-linecap="round" stroke-linejoin="round"/>
<path opacity="0.4" d="M24.3923 49.3541H24.4252" stroke="white" stroke-width="7.3069" stroke-linecap="round" stroke-linejoin="round"/>
</svg>
