<svg width="90" height="90" viewBox="0 0 90 90" fill="none" xmlns="http://www.w3.org/2000/svg">
<path opacity="0.4" d="M80.318 44.9982C80.318 64.5986 64.4287 80.4879 44.8283 80.4879C25.2279 80.4879 9.33858 64.5986 9.33858 44.9982C9.33858 25.3978 25.2279 9.5085 44.8283 9.5085C64.4287 9.5085 80.318 25.3978 80.318 44.9982Z" fill="#292D32" stroke="#0B1B43" stroke-width="3.73576"/>
<path d="M47.4667 43.6767L46.1459 44.9975L47.4667 46.3183L56.0589 54.9105C56.4128 55.2644 56.4128 55.8749 56.0589 56.2288C55.8673 56.4205 55.6409 56.5036 55.3998 56.5036C55.1586 56.5036 54.9322 56.4205 54.7406 56.2288L46.1484 47.6366L44.8276 46.3158L43.5068 47.6366L34.9145 56.2288C34.7229 56.4205 34.4965 56.5036 34.2554 56.5036C34.0142 56.5036 33.7878 56.4205 33.5962 56.2288C33.2423 55.8749 33.2423 55.2644 33.5962 54.9105L42.1885 46.3183L43.5092 44.9975L42.1885 43.6767L33.5962 35.0845C33.2423 34.7305 33.2423 34.12 33.5962 33.7661C33.9501 33.4122 34.5606 33.4122 34.9145 33.7661L43.5068 42.3584L44.8276 43.6792L46.1484 42.3584L54.7406 33.7661C55.0945 33.4122 55.705 33.4122 56.0589 33.7661C56.4128 34.12 56.4128 34.7305 56.0589 35.0845L57.3797 36.4052L56.0589 35.0845L47.4667 43.6767Z" fill="#292D32" stroke="white" stroke-width="3.73576"/>
</svg>
