<svg width="409" height="149" viewBox="0 0 409 149" fill="none" xmlns="http://www.w3.org/2000/svg">
<g clip-path="url(#clip0_75_7003)">
<path d="M94.2907 76.8449C91.4993 86.2802 88.7856 95.5541 86.147 104.849C83.2735 114.972 80.4723 125.116 77.6325 135.248C77.1608 136.932 76.5659 138.041 74.2735 137.929C68.8859 137.664 63.4764 137.844 57.8974 137.844C60.7982 127.771 63.6258 117.952 66.4828 108.031C56.8351 108.031 47.2703 108.031 37.6977 108.031C35.977 114.171 34.2868 120.3 32.5362 126.411C31.5907 129.711 30.471 132.963 29.5794 136.277C29.2799 137.39 28.923 137.88 27.705 137.868C22.1347 137.813 16.5635 137.844 10.5195 137.844C11.061 135.649 11.4984 133.608 12.0697 131.605C15.172 120.73 18.3114 109.865 21.4303 98.995C24.7071 87.5744 27.9894 76.1554 31.2302 64.7247C31.6723 63.1656 32.2415 62.3058 34.1665 62.3663C39.5064 62.5341 44.8551 62.4245 50.7898 62.4245C48.0613 72.0403 45.4026 81.4098 42.6854 90.9857C50.8811 90.9857 58.8269 90.9857 66.7727 90.9857C71.269 90.9857 71.3551 91.0111 72.5878 86.8313C74.9736 78.7418 77.2519 70.6206 79.5846 62.4786C85.7289 62.4786 91.8137 62.4786 98.3595 62.4786C97.0157 67.3048 95.7087 71.9989 94.2907 76.8449Z" fill="white"/>
<path d="M108.146 88.4235C113.973 85.5623 120.013 84.0711 126.293 84.3646C132.651 84.6617 138.984 85.7842 143.185 91.2774C144.825 93.4206 146.339 96.0989 146.704 98.7026C148.384 110.688 143.82 120.669 135.175 128.572C128.656 134.532 120.76 137.943 111.595 137.895C106.242 137.867 100.997 137.867 96.1455 135.109C90.9108 132.133 88.2003 127.591 87.9554 121.718C87.4795 110.303 92.0854 100.977 100.458 93.4875C102.678 91.5019 105.474 90.1608 108.146 88.4235ZM128.815 105.766C128.477 104.837 128.253 103.845 127.782 102.99C125.872 99.5285 121.103 99.5035 117.817 100.15C111.527 101.387 108.423 105.956 106.735 111.582C105.772 114.794 105.568 118.093 108.237 120.983C110.166 123.072 116.67 123.174 119.657 121.762C126.248 118.649 128.418 112.858 128.815 105.766Z" fill="white"/>
<path d="M233.398 116.107C234.978 107.099 238.664 99.337 245.5 93.4801C251.206 88.5901 257.821 85.5372 265.486 84.646C270.937 84.0123 275.999 84.6375 280.855 87.0126C285.842 89.4521 287.93 93.8371 288.258 99.1066C288.639 105.251 286.91 110.952 284.076 116.424C272.918 116.424 261.776 116.424 250.657 116.424C249.87 119.068 252.345 121.993 254.722 123.049C260.023 125.402 265.604 125.345 271.221 124.475C273.897 124.06 276.571 123.634 279.548 123.165C278.409 127.143 277.388 130.926 276.193 134.655C276.004 135.247 275.103 135.807 274.419 136.016C266.549 138.426 258.381 138.409 250.394 137.667C243.09 136.989 236.743 133.468 234.275 125.855C233.314 122.892 233.652 119.508 233.398 116.107ZM267.065 106.16C268.106 106.16 269.15 106.209 270.186 106.137C270.655 106.105 271.269 105.967 271.539 105.645C273.055 103.84 271.984 99.4551 269.949 98.1C264.165 94.2492 254.458 99.6407 253.237 106.16C257.705 106.16 262.166 106.16 267.065 106.16Z" fill="white"/>
<path d="M303.432 137.845C299.057 137.845 294.901 137.845 290.266 137.845C293.842 125.294 297.356 112.961 300.94 100.386C298.09 100.386 295.452 100.386 292.554 100.386C293.859 95.7979 295.046 91.4516 296.387 87.1533C296.541 86.658 297.538 86.1601 298.169 86.1263C300.461 86.0036 302.763 86.0779 305.035 86.0779C310.262 62.1822 327.957 57.9525 344.684 62.7297C343.372 67.3857 342.058 72.0446 340.744 76.7069C328.675 72.8138 323.945 77.3385 322.373 86.0789C326.69 86.0789 330.994 86.0789 335.894 86.0789C334.536 90.9609 333.235 95.6331 331.92 100.359C327.772 100.359 323.762 100.41 319.754 100.327C318.59 100.302 318.042 100.725 317.746 101.764C315.221 110.644 312.673 119.519 310.156 128.402C309.512 130.675 308.972 132.978 308.35 135.257C307.888 136.946 307.26 138.454 304.986 137.861C304.568 137.752 304.098 137.845 303.432 137.845Z" fill="#18B5D6"/>
<path d="M204.368 125.349C206.597 124.902 208.708 124.683 210.619 123.944C212.476 123.226 212.705 121.109 211.104 119.882C209.887 118.949 208.362 118.386 206.923 117.78C203.115 116.175 199.168 114.86 195.485 113.012C191.559 111.041 190.613 107.518 190.919 103.215C191.285 98.0611 193.769 94.1256 197.286 90.8353C200.581 87.753 204.758 85.9939 209.211 85.2301C212.292 84.7016 215.449 84.3068 218.563 84.3556C223.856 84.4386 229.039 85.4268 233.875 87.7126C234.45 87.9846 235.223 88.9454 235.112 89.3905C234.084 93.5349 232.882 97.6362 231.828 101.403C227.524 100.009 223.605 98.3976 219.526 97.5432C216.966 97.0068 214.15 97.457 211.483 97.7595C210.115 97.9147 209.374 99.0711 209.275 100.586C209.182 102.009 209.847 102.789 211.06 103.236C214.944 104.665 218.847 106.043 222.721 107.499C227.153 109.164 230.379 112.102 230.628 117.015C230.824 120.873 229.327 124.502 227.19 127.731C223.331 133.56 217.495 136.449 210.872 137.283C205.257 137.99 199.484 138.122 193.844 137.688C190.318 137.417 186.889 135.679 183.471 134.45C182.999 134.281 182.453 133.146 182.592 132.636C183.705 128.569 184.974 124.545 186.271 120.259C191.768 123.857 197.893 124.873 204.368 125.349Z" fill="white"/>
<path d="M363.263 116.418C364.752 111.007 366.24 105.783 367.777 100.388C365.215 100.388 362.788 100.388 359.789 100.388C361.16 95.4786 362.455 90.8417 363.769 86.1335C366.477 86.1335 369.143 86.1335 371.878 86.1335C373.179 81.7842 374.715 77.5501 375.618 73.1849C375.98 71.4361 376.963 71.1956 378.023 70.9549C383.279 69.7605 388.568 68.7088 394.432 67.4844C392.674 73.6933 390.959 79.748 389.181 86.0265C393.61 86.0265 398.011 86.0265 402.874 86.0265C402.037 89.2351 401.329 92.1331 400.515 95.0012C400.011 96.7781 399.838 99.1849 398.617 100.072C397.39 100.964 395.048 100.34 393.195 100.352C390.891 100.368 388.582 100.273 386.287 100.416C385.729 100.451 384.901 101.131 384.733 101.678C383.163 106.809 381.771 111.994 380.202 117.126C378.821 121.64 380.996 123.591 384.983 123.933C387.114 124.115 389.31 123.523 391.477 123.28C391.965 123.225 392.454 123.165 393.452 123.048C392.777 125.504 392.192 127.676 391.577 129.84C391.421 130.388 391.136 130.898 390.967 131.443C390.465 133.071 390.469 135.567 389.406 136.157C387.364 137.289 384.743 137.622 382.329 137.778C378.554 138.022 374.733 138.083 370.967 137.786C365.427 137.348 361.017 133.789 360.978 127.569C360.953 123.698 362.142 120.183 363.263 116.418Z" fill="#18B5D6"/>
<path d="M173.033 91.3259C178.659 86.2119 185.173 84.7026 192.569 85.8676C191.92 88.354 191.271 90.9996 190.535 93.6207C189.8 96.2398 188.977 98.8345 188.096 101.759C186.983 101.603 185.717 101.247 184.462 101.283C179.392 101.425 174.806 102.915 170.517 105.778C167.318 107.913 167.493 111.344 166.564 114.247C164.187 121.668 162.306 129.247 160.172 136.748C160.049 137.183 159.446 137.789 159.059 137.794C153.661 137.863 148.261 137.841 142.645 137.841C144.557 131.045 146.386 124.504 148.24 117.971C151.032 108.131 153.868 98.3035 156.62 88.4523C157.09 86.7701 157.696 85.9135 159.713 86.0152C163.852 86.2237 168.01 86.0778 172.466 86.0778C171.829 88.4018 171.255 90.498 170.482 93.3193C171.582 92.4705 172.249 91.9557 173.033 91.3259Z" fill="white"/>
<path d="M350.775 115.553C348.633 123.08 346.5 130.42 344.358 137.792C338.808 137.792 333.319 137.792 327.211 137.792C332.159 120.466 337.053 103.33 341.958 86.1562C347.545 86.1562 353.101 86.1562 359.21 86.1562C356.36 96.0364 353.572 105.702 350.775 115.553Z" fill="#18B5D6"/>
<path d="M346.741 70.0701C348.897 65.4735 352.531 63.2949 357.332 63.3567C363.803 63.4401 364.569 67.0427 363.366 71.8632C361.603 78.9244 354.997 81.5751 348.378 79.821C347.079 79.4769 345.178 76.2421 345.453 74.5234C345.685 73.0669 346.286 71.6691 346.741 70.0701Z" fill="#18B5D6"/>
<path d="M224.909 10.895C225.867 11.2144 225.954 11.2392 226.436 11.3836C233.004 13.3515 239.077 16.3833 244.992 19.7893C247.824 21.42 250.66 23.0827 253.637 24.4089C255.37 25.1808 257.375 25.3802 259.279 25.7226C262.652 26.3293 265.504 27.8622 267.098 30.9126C270.921 38.2292 276.97 43.3481 283.513 47.989C286.731 50.2715 290.13 52.2973 293.422 54.4767C293.827 54.7448 294.226 55.1956 294.376 55.6456C295.031 57.6084 295.753 59.5704 296.153 61.5916C296.836 65.0411 294.841 67.5828 292.77 69.9429C291.431 71.4688 290.196 73.1617 287.438 72.3265C286.512 72.0461 284.989 73.8117 283.712 74.5976C280.251 76.7277 276.527 76.5242 272.781 75.6799C272.143 75.536 271.507 74.9653 271.065 74.4303C265.651 67.8701 258.687 65.9766 250.46 67.0635C246.221 67.6235 241.948 67.5795 237.843 65.5318C236.431 64.8273 234.302 65.1652 232.598 65.509C225.695 66.9017 218.881 68.6294 213.154 73.0616C212.05 73.9157 211.132 75.0065 210.069 75.9175C209.639 76.2852 209.048 76.4634 208.377 76.4871C213.161 66.411 222.432 61.8883 231.906 57.468C229.912 53.1325 228.65 48.7943 229.512 43.6225C235.627 58.214 247.078 61.9051 260.994 60.8149C261.125 60.6107 261.256 60.4066 261.387 60.2025C258.867 58.082 256.346 55.9615 253.605 53.6554C254.147 53.573 254.609 53.3452 254.86 53.488C259.72 56.2602 264.601 58.9994 269.378 61.9109C272.283 63.6815 273.679 66.7471 275.084 69.6691C276.252 72.0968 278.601 72.8596 280.805 71.2359C281.44 70.7683 282.05 70.2668 282.972 69.5454C280.187 68.7786 277.635 68.0759 275.083 67.3733C275.137 67.1239 275.191 66.8745 275.245 66.6251C278.542 65.2737 281.69 64.4646 285.231 66.616C288.897 68.8432 289.958 68.2113 291.783 63.6101C287.441 64.7587 288.111 61.2496 287.262 58.8842C288.382 58.8842 289.458 58.8842 290.534 58.8842C290.676 58.7101 290.818 58.536 290.96 58.362C289.865 57.1549 288.908 55.7736 287.65 54.7702C281.304 49.7086 274.799 44.8423 268.532 39.6868C266.729 38.2038 265.34 36.1023 264.102 34.0766C262.493 31.4447 260.072 30.8151 257.322 30.1035C253.625 29.1468 249.323 28.3746 246.673 25.9814C241.454 21.2679 235.12 19.4352 228.953 16.6662C229.216 20.9528 231.861 24.826 234.564 24.7781C233.967 23.6688 233.419 22.6517 232.875 21.6405C235.964 20.5948 240.958 24.1975 241.724 27.5066C240.402 27.3582 239.149 27.1296 237.889 27.0897C227.872 26.773 218.36 29.2285 209.122 32.7411C198.435 36.8046 187.781 40.9783 177.273 45.4786C165.358 50.5813 153.444 55.6617 140.771 58.5485C135.002 59.8625 129.101 60.6873 123.219 61.3802C118.269 61.9631 113.259 62.0388 108.276 62.3254C107.561 62.3665 106.841 62.3311 106.074 62.04C125.799 60.2803 144.447 55.1091 161.341 45.4777C157.005 44.7471 152.363 44.2209 147.856 43.1351C143.217 42.0176 139.422 39.2347 136.229 35.4831C136.833 35.6734 137.503 35.7549 138.031 36.0718C141.322 38.0461 144.897 38.9719 148.704 39.127C157.524 39.4863 166.137 38.1202 174.668 36.0439C175.02 35.9582 175.407 36.0192 175.776 35.9992C176.127 35.9804 176.477 35.945 176.843 35.8005C166.79 34.976 158.022 31.3547 150.397 23.8112C151.319 24.055 151.803 24.064 152.142 24.2906C157.209 27.6796 162.889 29.0422 168.875 29.2856C171.92 29.4094 175.001 29.5654 178.019 29.2524C183.929 28.6395 189.809 27.73 195.694 26.8933C197.168 26.6837 198.615 26.2842 200.091 25.7689C190.267 26.8884 180.778 26.088 172.096 20.9584C170.425 19.9707 169.032 18.5102 167.748 17.0171C170.301 18.1453 172.791 19.4579 175.422 20.3598C179.668 21.8155 184.092 21.6664 188.428 20.8605C195.856 19.4802 203.197 17.5621 210.663 16.4967C214.932 15.8876 219.377 16.5169 224.008 16.593C223.341 14.7732 222.651 12.3004 221.815 9.97263C223.339 10.4721 223.598 10.4581 224.909 10.895Z" fill="white"/>
<path d="M252.573 36.7754C251.834 36.1643 251.207 35.6675 250.348 34.9857C259.734 33.2008 260.828 34.3668 264.258 38.7642C261.994 38.6102 259.589 37.9699 257.61 37.8353C257.742 38.074 257.739 38.0234 258.004 38.3484C258.281 38.6881 259.67 39.1407 260.895 39.5696C257.107 40.8826 254.676 39.5261 252.573 36.7754Z" fill="white"/>
</g>
<defs>
<clipPath id="clip0_75_7003">
<rect width="408.782" height="148.161" fill="white" transform="translate(0 0.839844)"/>
</clipPath>
</defs>
</svg>
