<svg width="87" height="86" viewBox="0 0 87 86" fill="none" xmlns="http://www.w3.org/2000/svg">
<path opacity="0.4" d="M19.8806 32.1647C26.7992 32.1647 32.4077 26.6171 32.4077 19.7738C32.4077 12.9304 26.7992 7.38281 19.8806 7.38281C12.9621 7.38281 7.35352 12.9304 7.35352 19.7738C7.35352 26.6171 12.9621 32.1647 19.8806 32.1647Z" stroke="white" stroke-width="7.46958"/>
<path opacity="0.4" d="M61.0431 53.4062H71.7806C75.7177 53.4062 78.939 56.5925 78.939 60.4868V71.1076C78.939 75.0019 75.7177 78.1882 71.7806 78.1882H61.0431C57.106 78.1882 53.8848 75.0019 53.8848 71.1076V60.4868C53.8848 56.5925 57.106 53.4062 61.0431 53.4062Z" stroke="white" stroke-width="7.46958"/>
<path d="M43.257 18.0039H52.8492C59.4707 18.0039 62.5487 26.1111 57.5737 30.4303L28.9761 55.1768C24.001 59.4605 27.0791 67.5677 33.6648 67.5677H43.257" stroke="white" stroke-width="7.46958" stroke-linecap="round" stroke-linejoin="round"/>
<path d="M19.9448 19.774H19.9861" stroke="white" stroke-width="7.46958" stroke-linecap="round" stroke-linejoin="round"/>
<path d="M66.4682 65.7975H66.5095" stroke="white" stroke-width="7.46958" stroke-linecap="round" stroke-linejoin="round"/>
</svg>
