<svg width="474" height="361" viewBox="0 0 474 361" fill="none" xmlns="http://www.w3.org/2000/svg">
<path opacity="0.4" d="M386.288 30.082L88.2318 30.0821C33.3285 30.0821 0.597656 62.7225 0.597656 117.474V243.373C0.597656 298.275 33.3285 330.915 88.2318 330.915L386.138 330.915C441.041 330.915 473.772 298.275 473.772 243.523V117.474C473.923 62.7224 441.192 30.082 386.288 30.082Z" fill="url(#paint0_linear_5_17605)"/>
<path d="M189.027 146.658C176.206 146.658 163.386 141.844 153.581 132.067C149.207 127.705 149.207 120.485 153.581 116.123C157.956 111.761 165.196 111.761 169.57 116.123C180.279 126.803 197.776 126.803 208.485 116.123C212.859 111.761 220.099 111.761 224.473 116.123C228.847 120.485 228.847 127.705 224.473 132.067C214.669 141.694 201.848 146.658 189.027 146.658Z" fill="url(#paint1_linear_5_17605)"/>
<path d="M284.976 146.658C272.156 146.658 259.335 141.844 249.531 132.067C245.156 127.705 245.156 120.485 249.531 116.123C253.905 111.761 261.145 111.761 265.519 116.123C276.228 126.803 293.725 126.803 304.434 116.123C308.808 111.761 316.048 111.761 320.422 116.123C324.796 120.485 324.796 127.705 320.422 132.067C310.618 141.694 297.797 146.658 284.976 146.658Z" fill="url(#paint2_linear_5_17605)"/>
<path d="M291.314 189.828H182.714C172.156 189.828 163.559 198.402 163.559 209.081C163.559 249.544 196.591 282.485 237.165 282.485C277.739 282.485 310.772 249.544 310.772 209.081C310.621 198.552 301.873 189.828 291.314 189.828Z" fill="url(#paint3_linear_5_17605)"/>
<defs>
<linearGradient id="paint0_linear_5_17605" x1="521.039" y1="60.8717" x2="101.666" y2="397.323" gradientUnits="userSpaceOnUse">
<stop stop-color="#3AC2C2"/>
<stop offset="1" stop-color="#18B5D6"/>
</linearGradient>
<linearGradient id="paint1_linear_5_17605" x1="235.491" y1="116.312" x2="187.796" y2="172.048" gradientUnits="userSpaceOnUse">
<stop stop-color="#3AC2C2"/>
<stop offset="1" stop-color="#18B5D6"/>
</linearGradient>
<linearGradient id="paint2_linear_5_17605" x1="331.44" y1="116.312" x2="283.745" y2="172.048" gradientUnits="userSpaceOnUse">
<stop stop-color="#3AC2C2"/>
<stop offset="1" stop-color="#18B5D6"/>
</linearGradient>
<linearGradient id="paint3_linear_5_17605" x1="325.477" y1="199.311" x2="196.035" y2="304.211" gradientUnits="userSpaceOnUse">
<stop stop-color="#3AC2C2"/>
<stop offset="1" stop-color="#18B5D6"/>
</linearGradient>
</defs>
</svg>
