<svg width="87" height="84" viewBox="0 0 87 84" fill="none" xmlns="http://www.w3.org/2000/svg">
<g clip-path="url(#clip0_8_7)">
<path d="M73.0252 31.7155C73.0252 15.6325 59.7694 2.54688 43.4774 2.54688C27.1854 2.54688 13.9297 15.6325 13.9297 31.7155C13.9297 46.5496 25.2054 58.834 39.7415 60.6511V65.9132H33.6282C32.6373 65.9132 31.6871 66.3018 30.9865 66.9934C30.2859 67.685 29.8923 68.6231 29.8923 69.6012C29.8923 70.5793 30.2859 71.5174 30.9865 72.209C31.6871 72.9006 32.6373 73.2892 33.6282 73.2892H39.7415V79.3241C39.7415 80.3022 40.1351 81.2403 40.8357 81.9319C41.5363 82.6235 42.4866 83.0121 43.4774 83.0121C44.4682 83.0121 45.4185 82.6235 46.1191 81.9319C46.8197 81.2403 47.2133 80.3022 47.2133 79.3241V73.2892H53.3267C54.3175 73.2892 55.2677 72.9006 55.9684 72.209C56.669 71.5174 57.0626 70.5793 57.0626 69.6012C57.0626 68.6231 56.669 67.685 55.9684 66.9934C55.2677 66.3018 54.3175 65.9132 53.3267 65.9132H47.2133V60.6511C61.7495 58.834 73.0252 46.5496 73.0252 31.7155ZM21.4015 31.7155C21.4015 19.6994 31.3051 9.92285 43.4774 9.92285C55.6497 9.92285 65.5533 19.6994 65.5533 31.7155C65.5533 43.7316 55.6497 53.5082 43.4774 53.5082C31.3051 53.5082 21.4015 43.7316 21.4015 31.7155Z" fill="#FF5C6F"/>
</g>
<defs>
<clipPath id="clip0_8_7">
<rect width="86" height="83" fill="white" transform="translate(0.0996094 0.171875)"/>
</clipPath>
</defs>
</svg>
