<svg width="90" height="90" viewBox="0 0 90 90" fill="none" xmlns="http://www.w3.org/2000/svg">
<path d="M19.2402 79.5568V10.4453" stroke="#0B1B43" stroke-width="3.73576"/>
<path d="M19.2413 80.4879C18.7412 80.4879 18.3073 80.054 18.3073 79.554V10.4424C18.3073 9.94238 18.7412 9.5085 19.2413 9.5085C19.7413 9.5085 20.1752 9.94238 20.1752 10.4424V79.554C20.1752 80.054 19.7413 80.4879 19.2413 80.4879Z" fill="#292D32" stroke="#0B1B43" stroke-width="3.73576"/>
<path opacity="0.4" d="M69.6984 18.8855L69.6984 18.8855L69.7029 18.8965C70.4679 20.7278 69.7664 23.6579 65.9964 27.4279L61.5135 31.9108C59.9319 33.4924 59.0436 35.6683 59.1369 37.8907C59.1902 39.8813 60.014 41.7446 61.4836 43.0401L65.9899 47.5464C65.991 47.5474 65.992 47.5485 65.993 47.5495C69.6687 51.2624 70.3656 54.1624 69.5893 56.0508C68.8106 57.9088 66.2519 59.494 61.0784 59.494H19.6862V15.5241H61.0784C66.3819 15.5241 68.9665 17.1014 69.6984 18.8855Z" fill="#292D32" stroke="#0B1B43" stroke-width="3.73576"/>
</svg>
