<svg width="58" height="43" viewBox="0 0 58 43" fill="none" xmlns="http://www.w3.org/2000/svg">
<path d="M5.58594 9.37892C5.58594 4.40836 9.61533 0.378906 14.5859 0.378906C24.1809 0.378906 33.8106 0.378906 43.5859 0.378906C48.5565 0.378906 52.5859 4.40829 52.5859 9.37885C52.5859 10.134 52.5859 10.8912 52.5859 11.6509C52.5859 14.0379 51.5659 16.6064 49.1795 16.5587C48.6205 16.5476 48.02 16.5076 47.3574 16.5083C46.011 16.513 46.011 16.513 44.6373 16.5179C43.1733 16.5148 43.1733 16.5148 41.6797 16.5117C40.1871 16.5132 40.1871 16.5132 38.6644 16.5146C36.5561 16.5153 34.4477 16.5134 32.3394 16.5093C29.0999 16.5039 25.8606 16.5092 22.6211 16.5156C20.5781 16.515 18.5352 16.5137 16.4922 16.5117C15.5162 16.5137 14.5401 16.5158 13.5345 16.5179C12.6369 16.5147 11.7393 16.5115 10.8145 16.5083C10.0203 16.5075 9.22609 16.5067 8.40784 16.5059C6.38376 16.3648 5.58594 14.239 5.58594 12.2101C5.58594 11.2678 5.58594 10.3245 5.58594 9.37892Z" fill="#18B5D6"/>
<path d="M5.58594 23.379C5.58594 21.1698 7.37678 19.3789 9.58592 19.3789C22.4683 19.3789 35.3785 19.3789 48.5857 19.3789C50.7948 19.3789 52.5859 21.1697 52.5859 23.3789C52.5859 25.6983 52.5859 28.0265 52.5859 30.3788C52.5859 32.588 50.7951 34.3789 48.586 34.3789C35.7036 34.3789 22.7934 34.3789 9.58622 34.3789C7.37708 34.3789 5.58594 32.5881 5.58594 30.3789C5.58594 28.0596 5.58594 25.7313 5.58594 23.379Z" fill="#18B5D6"/>
<path d="M1.21045 40.877C0.894876 39.6147 1.84633 38.3789 3.14747 38.3789C20.2748 38.3789 37.4236 38.3789 55.024 38.3789C56.3251 38.3789 57.2841 39.5864 56.9685 40.8487C56.7459 41.7391 55.9421 42.3789 55.0244 42.3789C37.9001 42.3789 20.7619 42.3789 3.14764 42.3789C2.22991 42.3789 1.43303 41.7673 1.21045 40.877Z" fill="#5E5E60"/>
</svg>
