<svg width="89" height="88" viewBox="0 0 89 88" fill="none" xmlns="http://www.w3.org/2000/svg">
<g opacity="0.8">
<path d="M34.0793 39.871C33.714 39.8344 33.2756 39.8344 32.8737 39.871C24.1785 39.5787 17.2734 32.4545 17.2734 23.6862C17.2734 14.7352 24.5073 7.46484 33.4948 7.46484C42.4457 7.46484 49.7161 14.7352 49.7161 23.6862C49.6796 32.4545 42.7745 39.5787 34.0793 39.871Z" stroke="#212851" stroke-width="5.48018" stroke-linecap="round" stroke-linejoin="round"/>
<path opacity="0.4" d="M60.5697 14.7695C67.6574 14.7695 73.3568 20.5055 73.3568 27.5566C73.3568 34.4616 67.8766 40.088 61.0446 40.3437C60.7523 40.3072 60.4235 40.3072 60.0947 40.3437" stroke="#212851" stroke-width="5.48018" stroke-linecap="round" stroke-linejoin="round"/>
<path d="M15.8127 53.3503C6.9713 59.2689 6.9713 68.914 15.8127 74.7961C25.8596 81.5184 42.3367 81.5184 52.3837 74.7961C61.2251 68.8775 61.2251 59.2324 52.3837 53.3503C42.3733 46.6645 25.8962 46.6645 15.8127 53.3503Z" stroke="#212851" stroke-width="5.48018" stroke-linecap="round" stroke-linejoin="round"/>
<path opacity="0.4" d="M67.6191 73.2254C70.2496 72.6774 72.734 71.6179 74.7799 70.0469C80.4793 65.7724 80.4793 58.7212 74.7799 54.4467C72.7705 52.9122 70.3227 51.8892 67.7287 51.3047" stroke="#212851" stroke-width="5.48018" stroke-linecap="round" stroke-linejoin="round"/>
</g>
</svg>
