<svg width="89" height="88" viewBox="0 0 89 88" fill="none" xmlns="http://www.w3.org/2000/svg">
<g opacity="0.8">
<path opacity="0.4" d="M66.3709 26.3167C66.1517 26.2801 65.896 26.2801 65.6768 26.3167C60.635 26.134 56.6162 22.0056 56.6162 16.8908C56.6162 11.6663 60.8177 7.46484 66.0421 7.46484C71.2665 7.46484 75.468 11.7029 75.468 16.8908C75.4315 22.0056 71.4127 26.134 66.3709 26.3167Z" stroke="#212851" stroke-width="5.48018" stroke-linecap="round" stroke-linejoin="round"/>
<path opacity="0.4" d="M62.6047 52.9119C67.61 53.7522 73.1267 52.8754 76.9993 50.2814C82.1507 46.8472 82.1507 41.2209 76.9993 37.7866C73.0901 35.1927 67.5003 34.3158 62.4951 35.1927" stroke="#212851" stroke-width="5.48018" stroke-linecap="round" stroke-linejoin="round"/>
<path opacity="0.4" d="M22.4174 26.3167C22.6366 26.2801 22.8924 26.2801 23.1116 26.3167C28.1533 26.134 32.1721 22.0056 32.1721 16.8908C32.1721 11.6663 27.9707 7.46484 22.7462 7.46484C17.5218 7.46484 13.3203 11.7029 13.3203 16.8908C13.3568 22.0056 17.3757 26.134 22.4174 26.3167Z" stroke="#212851" stroke-width="5.48018" stroke-linecap="round" stroke-linejoin="round"/>
<path opacity="0.4" d="M26.18 52.9119C21.1748 53.7522 15.6581 52.8754 11.7854 50.2814C6.63403 46.8472 6.63403 41.2209 11.7854 37.7866C15.6946 35.1927 21.2844 34.3158 26.2896 35.1927" stroke="#212851" stroke-width="5.48018" stroke-linecap="round" stroke-linejoin="round"/>
<path d="M44.4559 53.6018C44.2367 53.5653 43.9809 53.5653 43.7617 53.6018C38.72 53.4192 34.7012 49.2907 34.7012 44.1759C34.7012 38.9515 38.9026 34.75 44.1271 34.75C49.3515 34.75 53.553 38.988 53.553 44.1759C53.5164 49.2907 49.4976 53.4557 44.4559 53.6018Z" stroke="#212851" stroke-width="5.48018" stroke-linecap="round" stroke-linejoin="round"/>
<path d="M33.8235 65.1115C28.6721 68.5458 28.6721 74.1721 33.8235 77.6063C39.669 81.5155 49.2411 81.5155 55.0866 77.6063C60.2379 74.1721 60.2379 68.5458 55.0866 65.1115C49.2776 61.2389 39.669 61.2389 33.8235 65.1115Z" stroke="#212851" stroke-width="5.48018" stroke-linecap="round" stroke-linejoin="round"/>
</g>
</svg>
