<svg width="97" height="96" viewBox="0 0 97 96" fill="none" xmlns="http://www.w3.org/2000/svg">
<path d="M48.4847 92.6807C41.1257 92.6823 33.8799 90.8688 27.3893 87.4008C20.8986 83.9329 15.3635 78.9177 11.2744 72.7994C7.18517 66.6811 4.66814 59.6487 3.94627 52.3252C3.2244 45.0017 4.31998 37.6132 7.13593 30.8143C9.95188 24.0154 14.4013 18.016 20.0899 13.3476C25.7786 8.67916 32.5308 5.48588 39.7485 4.05064C46.9662 2.61541 54.4264 2.98252 61.4683 5.11947C68.5102 7.25641 74.9163 11.0972 80.1191 16.3016C80.6197 16.8004 81.0169 17.3932 81.2879 18.0458C81.5589 18.6985 81.6984 19.3982 81.6984 20.1049C81.6984 20.8116 81.5589 21.5113 81.2879 22.164C81.0169 22.8166 80.6197 23.4093 80.1191 23.9082C79.1004 24.8977 77.7361 25.4512 76.3158 25.4512C74.8956 25.4512 73.5313 24.8977 72.5126 23.9082C69.3703 20.7334 65.6274 18.216 61.502 16.5029C57.3767 14.7897 52.9516 13.9151 48.4847 13.9301C41.9894 13.9347 35.6313 15.7993 30.1624 19.3035C24.6934 22.8077 20.3425 27.8049 17.6241 33.704C14.9057 39.603 13.9336 46.1572 14.8228 52.5914C15.712 59.0255 18.4252 65.0704 22.6417 70.0111C26.8581 74.9518 32.4013 78.5816 38.6156 80.4711C44.83 82.3607 51.4555 82.4311 57.7086 80.6738C63.9616 78.9166 69.5806 75.4053 73.901 70.5552C78.2214 65.7051 81.0623 59.7192 82.0879 53.3054H48.4847C47.0606 53.3054 45.6949 52.7397 44.688 51.7328C43.681 50.7258 43.1153 49.3601 43.1153 47.9361C43.1153 46.512 43.681 45.1463 44.688 44.1393C45.6949 43.1324 47.0606 42.5667 48.4847 42.5667H87.86C89.284 42.5667 90.6497 43.1324 91.6567 44.1393C92.6636 45.1463 93.2293 46.512 93.2293 47.9361C93.2057 59.7958 88.4839 71.163 80.0978 79.5492C71.7117 87.9353 60.3444 92.657 48.4847 92.6807Z" fill="#212851"/>
</svg>
