<svg width="162" height="162" viewBox="0 0 162 162" fill="none" xmlns="http://www.w3.org/2000/svg">
<g clip-path="url(#clip0_181_13383)">
<path d="M161.14 80.6551C161.14 125.111 125.101 161.15 80.6453 161.15C36.1892 161.15 0.150391 125.111 0.150391 80.6551C0.150391 36.199 36.1892 0.160156 80.6453 0.160156C125.101 0.160156 161.14 36.199 161.14 80.6551ZM13.5083 80.6551C13.5083 117.734 43.5666 147.792 80.6453 147.792C117.724 147.792 147.782 117.734 147.782 80.6551C147.782 43.5763 117.724 13.518 80.6453 13.518C43.5666 13.518 13.5083 43.5763 13.5083 80.6551Z" fill="url(#paint0_linear_181_13383)"/>
<path fill-rule="evenodd" clip-rule="evenodd" d="M80.6468 8.73047C61.5718 8.73047 43.2781 16.308 29.7901 29.796C16.3021 43.284 8.72461 61.5777 8.72461 80.6526C8.72461 99.7276 16.3021 118.021 29.7901 131.509C43.2781 144.997 61.5718 152.575 80.6468 152.575C99.7217 152.575 118.015 144.997 131.503 131.509C144.991 118.021 152.569 99.7276 152.569 80.6526C152.569 61.5777 144.991 43.284 131.503 29.796C118.015 16.308 99.7217 8.73047 80.6468 8.73047ZM43.0726 93.2185C43.0726 92.5372 43.3432 91.8839 43.8249 91.4022C44.3066 90.9204 44.96 90.6498 45.6412 90.6498H115.324C116.005 90.6498 116.658 90.9204 117.14 91.4022C117.622 91.8839 117.892 92.5372 117.892 93.2185C117.892 98.89 115.118 106.956 109.138 113.593C103.076 120.333 93.6852 125.645 80.4721 125.645C67.2795 125.645 57.8885 120.333 51.8163 113.593C45.8467 106.956 43.0829 98.9003 43.0829 93.2185H43.0726ZM55.8028 70.1314C53.011 70.1287 50.3347 69.0171 48.3626 67.0411C47.3861 66.0627 46.6118 64.9015 46.0841 63.6239C45.5563 62.3463 45.2854 60.9772 45.2868 59.5948C45.2881 58.2125 45.5617 56.844 46.092 55.5674C46.6222 54.2908 47.3987 53.1311 48.3771 52.1546C50.3531 50.1825 53.0316 49.0761 55.8234 49.0788H55.8542C58.6459 49.0829 61.3217 50.1958 63.2929 52.1728C65.2641 54.1497 66.3692 56.8288 66.3651 59.6205C66.361 62.4123 65.2481 65.0881 63.2711 67.0593C61.2941 69.0304 58.6151 70.1355 55.8234 70.1314H55.8028ZM105.439 70.1314C102.648 70.1274 99.9718 69.0144 98.0006 67.0375C96.0295 65.0605 94.9244 62.3815 94.9285 59.5897C94.9325 56.798 96.0455 54.1222 98.0224 52.151C99.9994 50.1798 102.678 49.0747 105.47 49.0788H105.491C108.283 49.0815 110.959 50.1932 112.931 52.1692C114.903 54.1451 116.01 56.8236 116.007 59.6154C116.004 62.4072 114.892 65.0835 112.916 67.0556C110.94 69.0278 108.262 70.1342 105.47 70.1314H105.439Z" fill="url(#paint1_linear_181_13383)"/>
</g>
<defs>
<linearGradient id="paint0_linear_181_13383" x1="177.222" y1="16.6371" x2="-8.88224" y2="111.563" gradientUnits="userSpaceOnUse">
<stop stop-color="#3AC2C2"/>
<stop offset="1" stop-color="#18B5D6"/>
</linearGradient>
<linearGradient id="paint1_linear_181_13383" x1="166.938" y1="23.4526" x2="0.653962" y2="108.269" gradientUnits="userSpaceOnUse">
<stop stop-color="#3AC2C2"/>
<stop offset="1" stop-color="#18B5D6"/>
</linearGradient>
<clipPath id="clip0_181_13383">
<rect width="160.99" height="160.99" fill="white" transform="translate(0.150391 0.160156)"/>
</clipPath>
</defs>
</svg>
