<svg width="58" height="62" viewBox="0 0 58 62" fill="none" xmlns="http://www.w3.org/2000/svg">
<path d="M5.83594 8.43891C5.83594 4.02063 9.4176 0.378906 13.8359 0.378906C24.0888 0.378906 34.3769 0.378906 44.8357 0.378906C49.2539 0.378906 52.8359 3.90063 52.8359 8.31891C52.8359 12.7372 49.2543 16.3789 44.836 16.3789C34.5831 16.3789 24.295 16.3789 13.8362 16.3789C9.41793 16.3789 5.83594 12.8572 5.83594 8.43891Z" fill="#FF5C6F"/>
<path d="M11.0645 37.2478C12.4109 37.2431 12.4109 37.2431 13.7845 37.2383C15.2486 37.2413 15.2486 37.2413 16.7422 37.2444C17.7372 37.2435 18.7323 37.2425 19.7574 37.2415C21.8658 37.2408 23.9742 37.2427 26.0825 37.2469C29.322 37.2522 32.5613 37.2469 35.8008 37.2405C37.8438 37.2412 39.8867 37.2425 41.9297 37.2444C42.9057 37.2424 43.8817 37.2404 44.8873 37.2383C45.785 37.2414 46.6826 37.2446 47.6074 37.2478C48.7987 37.249 48.7987 37.249 50.014 37.2502C52.0381 37.3913 52.8359 39.5171 52.8359 41.5461C52.8359 42.4883 52.8359 43.4317 52.8359 44.3772C52.8359 49.3478 48.8065 53.3772 43.836 53.3772C34.241 53.3772 24.6113 53.3772 14.836 53.3772C9.86542 53.3772 5.74874 49.3376 5.90698 44.3695C6.13367 37.2528 7.08361 37.2518 11.0645 37.2478Z" fill="#3AC2C2"/>
<path d="M5.83594 26.9352C5.83594 22.793 9.19377 19.3789 13.3359 19.3789C23.9177 19.3789 34.5348 19.3789 45.3359 19.3789C49.478 19.3789 52.8359 22.6805 52.8359 26.8227C52.8359 30.9648 49.4781 34.3789 45.336 34.3789C34.7541 34.3789 24.1371 34.3789 13.336 34.3789C9.19383 34.3789 5.83594 31.0773 5.83594 26.9352Z" fill="#E78034"/>
<path d="M1.46045 59.877C1.14488 58.6147 2.09633 57.3789 3.39747 57.3789C20.5248 57.3789 37.6736 57.3789 55.274 57.3789C56.5751 57.3789 57.5341 58.5864 57.2185 59.8487C56.9959 60.7391 56.1921 61.3789 55.2744 61.3789C38.1501 61.3789 21.0119 61.3789 3.39764 61.3789C2.47991 61.3789 1.68303 60.7673 1.46045 59.877Z" fill="#5D5D5F"/>
</svg>
