<svg width="199" height="199" viewBox="0 0 199 199" fill="none" xmlns="http://www.w3.org/2000/svg">
<g opacity="0.8">
<path d="M17.949 82.3223C17.5636 78.951 17.3612 75.4897 17.3612 71.9387C17.3612 46.4802 37.8762 25.8828 63.1699 25.8828C78.0824 25.8828 91.4296 33.1331 99.7509 44.3381C108.072 33.1331 121.337 25.8828 136.332 25.8828C161.626 25.8828 182.141 46.4802 182.141 71.9387C182.141 129.611 128.752 163.638 104.859 171.795C102.058 172.784 97.444 172.784 94.6428 171.795C77.3257 165.883 44.5149 146.382 27.7657 114.138" stroke="#FF5C6F" stroke-width="12.3585" stroke-linecap="round" stroke-linejoin="round"/>
<path opacity="0.4" d="M146.063 99.2107L129.975 99.2107L113.887 80.3203L97.7995 124.561L81.7119 88.8079L65.6242 99.2108L49.5366 99.2108L27.1908 99.2108" stroke="#FF5C6F" stroke-width="12.3585" stroke-miterlimit="10" stroke-linecap="round" stroke-linejoin="round"/>
</g>
</svg>
