<svg width="83" height="83" viewBox="0 0 83 83" fill="none" xmlns="http://www.w3.org/2000/svg">
<path d="M70.7898 5.17954C72.5668 2.02896 77.8352 0.0606084 81.0447 1.72892C82.9895 2.73984 82.6936 4.20274 82.7475 6.39391C82.7698 7.30388 82.7789 8.21425 82.7799 9.1242C82.7844 10.4245 82.789 11.7248 82.7937 13.0645C82.7908 14.4784 82.7878 15.8923 82.7848 17.349C82.7862 18.7904 82.7876 20.2318 82.789 21.7169C82.79 24.7711 82.7873 27.8252 82.7813 30.8794C82.7735 35.5721 82.7812 40.2646 82.7905 44.9573C82.7895 47.9167 82.7877 50.8762 82.7848 53.8356C82.7877 55.2495 82.7907 56.6634 82.7937 58.1201C82.7868 60.0706 82.7868 60.0706 82.7799 62.0604C82.7787 63.2109 82.7775 64.3613 82.7764 65.5466C82.5708 68.4955 79.512 69.7451 76.5562 69.7851C75.637 69.7975 74.7177 69.801 73.7986 69.7989C72.2326 69.7988 70.6666 69.7987 69.0531 69.7986C66.4977 69.7874 66.4977 69.7874 63.8907 69.7759C62.1565 69.7739 60.4223 69.7718 58.6355 69.7697C53.0706 69.7616 47.5059 69.7434 41.941 69.725C38.179 69.7177 34.417 69.7111 30.6549 69.7052C23.0786 69.6921 15.5022 69.6734 7.92588 69.6503C4.97535 69.6413 2.37754 68.0823 1.89379 65.1716C1.64117 63.6517 1.91031 61.6666 2.74104 60.3689C4.07964 58.2778 4.66061 57.6128 7.44619 54.4241C8.58526 53.0946 9.72434 51.765 10.8979 50.3952C12.0893 49.0955 13.2807 47.7959 14.5081 46.4568C16.3204 44.4261 16.3204 44.4261 18.1692 42.3543C18.6811 41.9056 19.1198 41.5209 19.5053 41.1892C22.6305 38.5002 27.1769 38.5325 31.0825 39.8533C35.3812 41.3069 38.1829 43.7016 41.8577 47.6024C42.9005 48.7093 44.3265 49.354 45.8473 49.354C47.9301 49.354 49.8485 48.1602 50.751 46.2831C50.9075 45.9576 51.0648 45.6303 51.2232 45.3007C53.6119 40.3344 56.0048 35.3702 58.3991 30.4066C59.4343 28.2587 60.4685 26.1104 61.5014 23.9614C62.987 20.8712 64.4768 17.7829 65.9674 14.6951C66.4278 13.7352 66.8881 12.7754 67.3624 11.7865C68.4658 9.5059 69.5813 7.32217 70.7898 5.17954Z" fill="#3AC2C2"/>
<path opacity="0.6" d="M28.7267 9.97523C34.6573 6.15334 42.3446 10.6579 47.6463 15.3131C49.0468 16.5231 50.4473 17.7332 51.8902 18.9799C53.8257 20.7156 54.5802 23.4309 53.7253 25.8861C52.4183 29.6398 50.9567 33.2616 49.0949 36.861C48.5832 37.8582 48.0716 38.8554 47.5444 39.8827C46.8936 41.1275 45.3712 41.6419 44.1266 40.9909C41.4475 39.5894 39.1061 38.0981 36.5101 36.1367C33.8437 34.5682 31.805 33.6706 29.705 33.261C24.5091 32.2476 19.1635 34.4184 15.0707 37.7759C11.3355 40.8401 8.2559 44.5033 4.97476 48.4725C4.40224 49.1223 3.82973 49.7721 3.24484 50.4359C3.03876 50.6698 2.74642 50.8038 2.4347 50.8038C1.88725 50.8038 1.42075 50.394 1.35309 49.8508C0.366096 41.9263 0.357859 41.0949 2.48596 37.5866C2.93516 36.8461 3.456 36.1482 4.0364 35.5053C6.48218 32.7962 9.03246 30.2193 11.6123 27.6262C12.9932 26.1186 14.3659 24.6035 15.7318 23.0823C22.4156 15.6502 25.8548 11.826 28.7267 9.97523Z" fill="#6C6D6F"/>
<path d="M2.37537 80.4976C1.91823 78.669 3.29651 76.8789 5.18135 76.8789C29.514 76.8789 53.8776 76.8789 78.8812 76.8789C80.766 76.8789 82.1551 78.6281 81.698 80.4567C81.3755 81.7464 80.2112 82.6733 78.8817 82.6733C54.5536 82.6733 30.2051 82.6733 5.18157 82.6733C3.85213 82.6733 2.69781 81.7873 2.37537 80.4976Z" fill="#212851"/>
</svg>
