<svg width="94" height="102" viewBox="0 0 94 102" fill="none" xmlns="http://www.w3.org/2000/svg">
<g opacity="0.8">
<path d="M44.0212 44.6205C54.1099 44.6205 62.2884 36.4419 62.2884 26.3532C62.2884 16.2645 54.1099 8.08594 44.0212 8.08594C33.9324 8.08594 25.7539 16.2645 25.7539 26.3532C25.7539 36.4419 33.9324 44.6205 44.0212 44.6205Z" stroke="#212851" stroke-width="5.48018" stroke-linecap="round" stroke-linejoin="round"/>
<path opacity="0.4" d="M12.6387 81.1523C12.6387 67.0134 26.7046 55.5781 44.0219 55.5781" stroke="#212851" stroke-width="5.48018" stroke-linecap="round" stroke-linejoin="round"/>
<g clip-path="url(#clip0_8_443)">
<path d="M87.3634 61.8973L86.8377 78.0167C86.7959 79.2974 85.9612 80.4166 84.7455 80.8218C83.3662 81.2816 81.8537 80.708 81.1261 79.4492L75.7303 70.1137C74.6654 68.245 72.608 67.8371 71.0809 68.3399C69.528 68.8512 68.1379 70.4263 68.425 72.5678L68.9855 77.7186C69.2328 79.9919 69.3151 80.8191 69.2943 81.3443C69.1005 86.2537 64.4742 89.7658 59.6933 88.633C59.1819 88.5118 58.4072 88.2103 56.284 87.3611C55.1969 86.9262 54.8199 86.7723 54.515 86.615L53.3222 88.9279L54.515 86.615C51.8025 85.2162 50.1538 82.3651 50.2944 79.3164C50.3103 78.9737 50.3649 78.5701 50.5303 77.411L52.3235 64.8428C52.8736 60.9976 54.792 57.4798 57.7267 54.935C60.6613 52.3903 64.4152 50.9892 68.2995 50.9891C68.2995 50.9891 68.2995 50.9891 68.2996 50.9891H85.0141C82.428 53.3105 83.1789 57.2173 85.4113 59.0725C86.8317 60.2529 87.3478 61.231 87.3634 61.8973Z" stroke="#212851" stroke-width="5.20471"/>
</g>
</g>
<defs>
<clipPath id="clip0_8_443">
<rect width="65" height="65" fill="white" transform="translate(28.0215 36.7773)"/>
</clipPath>
</defs>
</svg>
