<svg width="92" height="92" viewBox="0 0 92 92" fill="none" xmlns="http://www.w3.org/2000/svg">
<g clip-path="url(#clip0_75_13389)">
<path d="M75.9471 18.4625L77.1055 20.0696L75.9471 18.4625C71.9614 21.3354 72.7586 26.8857 75.9302 29.5214C78.3113 31.5001 79.6 33.4719 79.6175 35.2548L78.7751 61.0838C78.687 63.786 76.9257 66.1475 74.3609 67.0025C71.4505 67.9726 68.2592 66.7623 66.7241 64.1063L58.0884 49.1652C56.8124 46.9221 54.3524 46.4206 52.492 47.0332C50.6054 47.6544 48.9503 49.5436 49.3042 52.1251L50.2032 60.3871C50.9003 66.7931 51.3914 71.3512 51.3371 74.7524C51.283 78.146 50.6805 79.7959 49.7304 80.8238C49.1092 81.4958 48.3748 82.0534 47.5605 82.4711C46.3151 83.1099 44.564 83.2468 41.2807 82.3868C37.9901 81.525 33.7317 79.8268 27.7488 77.4337C24.6864 76.2087 22.5681 75.3582 20.9835 74.5329C19.4449 73.7316 18.6293 73.0614 18.0744 72.3125C17.7226 71.8377 17.4258 71.3245 17.1898 70.7827L14.804 71.8221L17.1898 70.7827C16.8175 69.9282 16.6435 68.887 16.7164 67.1538C16.7916 65.3687 17.111 63.1085 17.5769 59.8433L20.4462 39.7335C20.4462 39.7332 20.4463 39.7329 20.4463 39.7326C21.3799 33.2087 24.6348 27.2403 29.6139 22.9226C34.5932 18.6048 40.9627 16.2276 47.5534 16.2274C47.5534 16.2274 47.5535 16.2274 47.5535 16.2274H75.2255C76.4233 16.2274 76.9188 17.7621 75.9471 18.4625Z" stroke="#212851" stroke-width="5.20471"/>
<path opacity="0.4" d="M7.94531 69.8385L12.9286 34.9119C13.9507 27.7676 17.858 21.5915 23.3105 16.8633C28.7631 12.1351 35.395 9.17214 42.612 9.17188" stroke="#212851" stroke-width="5.20471" stroke-linecap="round"/>
</g>
<defs>
<clipPath id="clip0_75_13389">
<rect width="91" height="91" fill="white" transform="translate(0.445312 0.625)"/>
</clipPath>
</defs>
</svg>
