<svg width="92" height="92" viewBox="0 0 92 92" fill="none" xmlns="http://www.w3.org/2000/svg">
<g clip-path="url(#clip0_75_13422)">
<path d="M15.9435 18.8219L14.7852 20.4289L15.9435 18.8219C19.9292 21.6948 19.132 27.2451 15.9604 29.8807C13.5793 31.8595 12.2907 33.8313 12.2731 35.6141L13.1155 61.4432C13.2036 64.1454 14.9649 66.5069 17.5298 67.3619C20.4401 68.332 23.6314 67.1217 25.1665 64.4657L33.8022 49.5245C35.0782 47.2814 37.5382 46.78 39.3986 47.3926C41.2852 48.0138 42.9403 49.9029 42.5864 52.4845L41.6874 60.7465C40.9903 67.1525 40.4993 71.7106 40.5535 75.1118C40.6076 78.5054 41.2102 80.1553 42.1602 81.1831C42.7814 81.8552 43.5159 82.4128 44.3301 82.8304C45.5755 83.4693 47.3267 83.6062 50.6099 82.7462C53.9005 81.8843 58.1589 80.1862 64.1418 77.7931C67.2042 76.5681 69.3225 75.7175 70.9071 74.8923C72.4457 74.0909 73.2613 73.4207 73.8162 72.6718C74.168 72.197 74.4648 71.6838 74.7008 71.1421L77.0866 72.1815L74.7008 71.1421C75.0731 70.2876 75.2472 69.2464 75.1742 67.5131C75.099 65.7281 74.7796 63.4679 74.3137 60.2027L71.4444 40.0929C71.4444 40.0926 71.4444 40.0923 71.4443 40.092C70.5108 33.568 67.2558 27.5996 62.2767 23.282C57.2974 18.9642 50.9279 16.587 44.3372 16.5867C44.3372 16.5867 44.3372 16.5867 44.3371 16.5867H16.6651C15.4673 16.5867 14.9718 18.1215 15.9435 18.8219Z" stroke="#212851" stroke-width="5.20471"/>
</g>
<defs>
<clipPath id="clip0_75_13422">
<rect width="91" height="91" fill="white" transform="matrix(-1 0 0 1 91.4453 0.984375)"/>
</clipPath>
</defs>
</svg>
