<svg width="92" height="92" viewBox="0 0 92 92" fill="none" xmlns="http://www.w3.org/2000/svg">
<g clip-path="url(#clip0_75_13419)">
<path d="M75.9471 17.9235L77.1055 19.5305L75.9471 17.9235C71.9614 20.7964 72.7586 26.3467 75.9302 28.9823C78.3113 30.961 79.6 32.9328 79.6175 34.7157L78.7751 60.5448C78.687 63.2469 76.9257 65.6085 74.3609 66.4634C71.4505 67.4335 68.2592 66.2233 66.7241 63.5672L58.0884 48.6261C56.8124 46.383 54.3524 45.8816 52.492 46.4941C50.6054 47.1153 48.9503 49.0045 49.3042 51.5861L50.2032 59.8481C50.9003 66.254 51.3914 70.8122 51.3371 74.2133C51.283 77.6069 50.6805 79.2568 49.7304 80.2847C49.1092 80.9567 48.3748 81.5143 47.5605 81.932C46.3151 82.5708 44.564 82.7078 41.2807 81.8478C37.9901 80.9859 33.7317 79.2878 27.7488 76.8946C24.6864 75.6697 22.5681 74.8191 20.9835 73.9938C19.4449 73.1925 18.6293 72.5223 18.0744 71.7734C17.7226 71.2986 17.4258 70.7854 17.1898 70.2436L14.804 71.283L17.1898 70.2436C16.8175 69.3891 16.6435 68.348 16.7164 66.6147C16.7916 64.8297 17.111 62.5694 17.5769 59.3042L20.4462 39.1945C20.4462 39.1942 20.4463 39.1938 20.4463 39.1935C21.3799 32.6696 24.6348 26.7012 29.6139 22.3836C34.5932 18.0657 40.9627 15.6886 47.5534 15.6883C47.5534 15.6883 47.5535 15.6883 47.5535 15.6883H75.2255C76.4233 15.6883 76.9188 17.223 75.9471 17.9235Z" stroke="#212851" stroke-width="5.20471"/>
</g>
<defs>
<clipPath id="clip0_75_13419">
<rect width="91" height="91" fill="white" transform="translate(0.445312 0.0859375)"/>
</clipPath>
</defs>
</svg>
