<svg width="99" height="92" viewBox="0 0 99 92" fill="none" xmlns="http://www.w3.org/2000/svg">
<g opacity="0.8" clip-path="url(#clip0_8_437)">
<path d="M80.6737 18.6031L81.832 20.2102L80.6737 18.6031C76.688 21.4761 77.4851 27.0264 80.6568 29.662C83.0379 31.6407 84.3265 33.6125 84.3441 35.3954L83.5017 61.2245C83.4136 63.9266 81.6523 66.2882 79.0874 67.1431C76.1771 68.1132 72.9858 66.903 71.4506 64.2469L62.8149 49.3058C61.539 47.0627 59.0789 46.5613 57.2186 47.1738C55.332 47.795 53.6769 49.6842 54.0308 52.2657L54.9298 60.5278C55.6268 66.9337 56.1179 71.4919 56.0637 74.893C56.0096 78.2866 55.407 79.9365 54.457 80.9644C53.8358 81.6364 53.1013 82.194 52.2871 82.6117C51.0417 83.2505 49.2905 83.3875 46.0072 82.5275C42.7167 81.6656 38.4583 79.9675 32.4754 77.5743C29.413 76.3494 27.2947 75.4988 25.7101 74.6735C24.1715 73.8722 23.3559 73.202 22.801 72.4531C22.4491 71.9783 22.1524 71.4651 21.9164 70.9233L19.5306 71.9627L21.9164 70.9233C21.5441 70.0688 21.37 69.0276 21.443 67.2944C21.5182 65.5093 21.8376 63.2491 22.3035 59.9839L25.1727 39.8742C25.1728 39.8738 25.1728 39.8735 25.1729 39.8732C26.1064 33.3493 29.3614 27.3809 34.3405 23.0633C39.3198 18.7454 45.6893 16.3682 52.2799 16.368C52.28 16.368 52.28 16.368 52.28 16.368H79.9521C81.1499 16.368 81.6454 17.9027 80.6737 18.6031Z" stroke="#212851" stroke-width="5.20471"/>
<path opacity="0.4" d="M12.6719 69.987L17.6552 35.0603C18.6773 27.916 22.5846 21.7399 28.0371 17.0117C33.4896 12.2836 40.1215 9.32058 47.3385 9.32031" stroke="#212851" stroke-width="5.20471" stroke-linecap="round"/>
</g>
<defs>
<clipPath id="clip0_8_437">
<rect width="98" height="91" fill="white" transform="translate(0.28125 0.765625)"/>
</clipPath>
</defs>
</svg>
