<svg width="566" height="206" viewBox="0 0 566 206" fill="none" xmlns="http://www.w3.org/2000/svg">
<g clip-path="url(#clip0_5_17518)">
<path d="M130.834 105.674C126.975 118.793 123.225 131.687 119.578 144.611C115.606 158.686 111.734 172.789 107.809 186.877C107.157 189.217 106.335 190.76 103.167 190.604C95.7202 190.235 88.2434 190.486 80.5323 190.486C84.5417 176.48 88.4499 162.828 92.3987 149.034C79.0642 149.034 65.8441 149.034 52.6133 149.034C50.2349 157.572 47.8989 166.093 45.4792 174.59C44.1724 179.178 42.6248 183.7 41.3925 188.307C40.9786 189.854 40.4852 190.536 38.8018 190.519C31.1028 190.443 23.4025 190.486 15.0488 190.486C15.7973 187.434 16.4018 184.596 17.1914 181.811C21.4793 166.691 25.8184 151.585 30.1292 136.471C34.6582 120.592 39.1948 104.715 43.6742 88.8223C44.2852 86.6546 45.0719 85.4591 47.7326 85.5432C55.1132 85.7766 62.5059 85.6241 70.7086 85.6241C66.9373 98.9938 63.2627 112.021 59.5071 125.335C70.8347 125.335 81.817 125.335 92.7994 125.335C99.0139 125.335 99.133 125.37 100.837 119.559C104.134 108.311 107.283 97.0199 110.507 85.6993C119 85.6993 127.41 85.6993 136.457 85.6993C134.6 92.4097 132.793 98.9362 130.834 105.674Z" fill="#0B1B43"/>
<path d="M149.979 121.772C158.032 117.794 166.38 115.721 175.061 116.129C183.848 116.542 192.601 118.103 198.408 125.74C200.674 128.72 202.767 132.444 203.271 136.064C205.594 152.728 199.286 166.605 187.336 177.595C178.326 185.881 167.412 190.623 154.745 190.556C147.347 190.517 140.097 190.517 133.392 186.683C126.157 182.545 122.41 176.23 122.072 168.064C121.414 152.193 127.78 139.227 139.353 128.813C142.42 126.052 146.285 124.188 149.979 121.772ZM178.546 145.885C178.079 144.593 177.77 143.214 177.118 142.025C174.478 137.212 167.887 137.178 163.345 138.076C154.651 139.797 150.361 146.148 148.028 153.971C146.697 158.437 146.415 163.023 150.104 167.042C152.771 169.947 161.76 170.088 165.888 168.126C174.998 163.797 177.997 155.746 178.546 145.885Z" fill="#0B1B43"/>
<path d="M323.102 160.264C325.284 147.739 330.38 136.948 339.827 128.804C347.715 122.006 356.857 117.761 367.452 116.522C374.986 115.641 381.983 116.51 388.694 119.812C395.587 123.204 398.473 129.301 398.926 136.627C399.453 145.171 397.063 153.097 393.145 160.705C377.724 160.705 362.324 160.705 346.956 160.705C345.867 164.382 349.288 168.449 352.574 169.916C359.901 173.188 367.615 173.109 375.378 171.899C379.077 171.322 382.773 170.729 386.888 170.078C385.313 175.608 383.901 180.869 382.251 186.053C381.989 186.877 380.743 187.654 379.798 187.945C368.921 191.296 357.631 191.273 346.593 190.241C336.497 189.298 327.725 184.403 324.313 173.818C322.985 169.698 323.452 164.993 323.102 160.264ZM369.634 146.434C371.073 146.434 372.516 146.502 373.948 146.403C374.596 146.358 375.444 146.166 375.818 145.718C377.913 143.208 376.433 137.112 373.62 135.228C365.626 129.874 352.209 137.37 350.521 146.434C356.698 146.434 362.863 146.434 369.634 146.434Z" fill="#0B1B43"/>
<path d="M419.899 190.487C413.852 190.487 408.107 190.487 401.701 190.487C406.644 173.036 411.501 155.89 416.454 138.405C412.515 138.405 408.87 138.405 404.864 138.405C406.668 132.026 408.308 125.983 410.161 120.007C410.375 119.318 411.753 118.626 412.625 118.579C415.792 118.408 418.974 118.511 422.115 118.511C429.339 85.2874 453.796 79.4065 476.916 86.0486C475.102 92.5222 473.287 98.9998 471.47 105.482C454.788 100.069 448.251 106.36 446.079 118.513C452.045 118.513 457.995 118.513 464.767 118.513C462.889 125.301 461.092 131.797 459.274 138.367C453.541 138.367 447.998 138.438 442.459 138.322C440.85 138.289 440.092 138.876 439.684 140.32C436.193 152.668 432.671 165.007 429.192 177.358C428.302 180.518 427.557 183.72 426.696 186.889C426.058 189.238 425.19 191.334 422.047 190.509C421.469 190.357 420.819 190.487 419.899 190.487Z" fill="#18B5D6"/>
<path d="M282.973 173.115C286.054 172.494 288.973 172.19 291.613 171.162C294.179 170.163 294.496 167.22 292.283 165.514C290.601 164.217 288.494 163.434 286.505 162.591C281.242 160.36 275.786 158.532 270.696 155.962C265.27 153.221 263.962 148.324 264.385 142.341C264.891 135.175 268.323 129.703 273.185 125.128C277.739 120.843 283.512 118.397 289.667 117.335C293.925 116.6 298.288 116.051 302.594 116.119C309.91 116.234 317.073 117.608 323.757 120.786C324.552 121.165 325.619 122.5 325.467 123.119C324.046 128.882 322.385 134.584 320.928 139.821C314.979 137.883 309.561 135.643 303.924 134.455C300.386 133.709 296.494 134.335 292.807 134.755C290.917 134.971 289.893 136.579 289.756 138.685C289.628 140.663 290.546 141.749 292.223 142.369C297.591 144.356 302.986 146.272 308.341 148.297C314.465 150.612 318.924 154.698 319.269 161.528C319.539 166.891 317.471 171.938 314.517 176.427C309.184 184.532 301.117 188.549 291.963 189.708C284.203 190.691 276.223 190.875 268.428 190.271C263.554 189.894 258.815 187.478 254.09 185.769C253.439 185.534 252.684 183.956 252.876 183.247C254.414 177.593 256.168 171.998 257.96 166.038C265.559 171.041 274.024 172.453 282.973 173.115Z" fill="#0B1B43"/>
<path d="M502.592 160.7C504.651 153.176 506.707 145.913 508.831 138.413C505.291 138.413 501.936 138.413 497.791 138.413C499.686 131.587 501.475 125.14 503.292 118.593C507.035 118.593 510.72 118.593 514.5 118.593C516.298 112.546 518.421 106.659 519.67 100.59C520.17 98.1585 521.528 97.8241 522.993 97.4894C530.258 95.8287 537.569 94.3664 545.673 92.6641C543.243 101.297 540.872 109.715 538.415 118.445C544.537 118.445 550.619 118.445 557.341 118.445C556.184 122.906 555.205 126.935 554.081 130.923C553.384 133.393 553.145 136.74 551.458 137.973C549.761 139.214 546.525 138.345 543.963 138.363C540.779 138.385 537.587 138.253 534.415 138.451C533.644 138.5 532.5 139.445 532.268 140.206C530.097 147.34 528.173 154.55 526.004 161.684C524.096 167.961 527.102 170.674 532.614 171.149C535.558 171.402 538.594 170.579 541.589 170.241C542.264 170.164 542.938 170.082 544.318 169.918C543.386 173.333 542.577 176.353 541.727 179.362C541.512 180.124 541.117 180.833 540.884 181.591C540.191 183.854 540.195 187.325 538.726 188.145C535.904 189.719 532.281 190.182 528.944 190.399C523.727 190.738 518.446 190.823 513.24 190.41C505.583 189.801 499.489 184.853 499.434 176.205C499.4 170.822 501.044 165.935 502.592 160.7Z" fill="#18B5D6"/>
<path d="M239.668 125.809C247.444 118.698 256.447 116.6 266.669 118.22C265.773 121.677 264.876 125.355 263.858 128.999C262.842 132.641 261.705 136.249 260.488 140.314C258.948 140.098 257.199 139.603 255.464 139.652C248.457 139.85 242.118 141.923 236.19 145.902C231.768 148.87 232.011 153.642 230.726 157.677C227.441 167.996 224.841 178.534 221.892 188.963C221.721 189.567 220.888 190.41 220.353 190.417C212.892 190.513 205.429 190.482 197.666 190.482C200.31 181.033 202.837 171.939 205.399 162.855C209.259 149.174 213.179 135.51 216.982 121.813C217.632 119.475 218.469 118.283 221.257 118.425C226.978 118.715 232.725 118.512 238.883 118.512C238.003 121.743 237.21 124.658 236.141 128.58C237.661 127.4 238.583 126.684 239.668 125.809Z" fill="#0B1B43"/>
<path d="M485.335 159.497C482.374 169.962 479.426 180.168 476.465 190.418C468.795 190.418 461.208 190.418 452.766 190.418C459.605 166.329 466.369 142.504 473.149 118.625C480.871 118.625 488.549 118.625 496.994 118.625C493.055 132.362 489.201 145.8 485.335 159.497Z" fill="#18B5D6"/>
<path d="M479.762 96.2578C482.741 89.8668 487.764 86.8377 494.4 86.9237C503.344 87.0395 504.403 92.0485 502.74 98.7508C500.303 108.569 491.173 112.254 482.024 109.815C480.229 109.337 477.601 104.839 477.98 102.45C478.302 100.424 479.132 98.481 479.762 96.2578Z" fill="#18B5D6"/>
<path d="M311.369 13.9777C312.693 14.4218 312.813 14.4562 313.479 14.6571C322.558 17.3932 330.951 21.6085 339.127 26.3442C343.042 28.6114 346.96 30.9233 351.076 32.7671C353.471 33.8404 356.243 34.1176 358.874 34.5937C363.536 35.4373 367.478 37.5685 369.681 41.8097C374.964 51.9826 383.326 59.0999 392.369 65.5525C396.816 68.726 401.514 71.5426 406.065 74.5728C406.625 74.9456 407.176 75.5723 407.384 76.198C408.289 78.927 409.287 81.655 409.84 84.4652C410.783 89.2613 408.026 92.7952 405.164 96.0767C403.313 98.1982 401.605 100.552 397.793 99.3907C396.513 99.0008 394.41 101.456 392.645 102.548C387.861 105.51 382.713 105.227 377.536 104.053C376.654 103.853 375.774 103.06 375.164 102.316C367.682 93.1946 358.055 90.562 346.685 92.0732C340.826 92.8518 334.92 92.7906 329.246 89.9435C327.294 88.964 324.352 89.4338 321.996 89.9118C312.456 91.8482 303.037 94.2504 295.122 100.413C293.596 101.6 292.328 103.117 290.857 104.384C290.264 104.895 289.447 105.143 288.52 105.175C295.132 91.1659 307.945 84.8776 321.04 78.7318C318.285 72.7038 316.54 66.6721 317.731 59.4813C326.183 79.7689 342.01 84.9011 361.244 83.3852C361.425 83.1014 361.606 82.8176 361.788 82.5337C358.304 79.5855 354.821 76.6372 351.032 73.4309C351.781 73.3163 352.419 72.9995 352.765 73.1981C359.483 77.0526 366.23 80.8611 372.832 84.909C376.847 87.3709 378.776 91.6332 380.719 95.6959C382.333 99.0714 385.58 100.132 388.626 97.8744C389.504 97.2242 390.347 96.527 391.621 95.524C387.772 94.4578 384.245 93.4808 380.717 92.5039C380.792 92.1571 380.867 91.8104 380.942 91.4636C385.498 89.5847 389.849 88.4597 394.744 91.451C399.811 94.5476 401.277 93.669 403.799 87.2717C397.799 88.8687 398.725 83.9897 397.55 80.7009C399.099 80.7009 400.587 80.7009 402.074 80.7009C402.27 80.4588 402.466 80.2168 402.662 79.9747C401.148 78.2965 399.826 76.3759 398.087 74.9808C389.315 67.9433 380.325 61.1773 371.662 54.0092C369.17 51.9473 367.251 49.0254 365.54 46.2089C363.316 42.5496 359.969 41.6742 356.169 40.6848C351.059 39.3546 345.113 38.2809 341.451 34.9536C334.237 28.4 325.482 25.8518 316.958 22.0019C317.323 27.9619 320.979 33.347 324.715 33.2805C323.889 31.7382 323.132 30.3239 322.379 28.918C326.649 27.4642 333.552 32.4732 334.61 37.0742C332.783 36.8677 331.051 36.5499 329.31 36.4945C315.465 36.0541 302.317 39.4683 289.549 44.352C274.779 50.0018 260.052 55.8048 245.528 62.062C229.06 69.1567 212.593 76.2203 195.077 80.2341C187.104 82.0611 178.948 83.2079 170.817 84.1712C163.976 84.9817 157.052 85.0869 150.164 85.4854C149.175 85.5426 148.181 85.4933 147.121 85.0886C174.384 82.6419 200.158 75.4521 223.509 62.0607C217.515 61.045 211.099 60.3133 204.87 58.8037C198.458 57.2499 193.212 53.3807 188.8 48.1645C189.635 48.4291 190.56 48.5424 191.29 48.983C195.839 51.728 200.78 53.0152 206.041 53.2308C218.233 53.7304 230.137 51.831 241.929 48.9442C242.415 48.825 242.949 48.9098 243.46 48.8821C243.945 48.8559 244.428 48.8066 244.935 48.6057C231.04 47.4594 218.922 42.4244 208.382 31.9362C209.656 32.2751 210.326 32.2876 210.794 32.6027C217.797 37.3146 225.648 39.2092 233.922 39.5476C238.13 39.7197 242.389 39.9366 246.559 39.5015C254.728 38.6493 262.855 37.3848 270.989 36.2214C273.027 35.93 275.026 35.3746 277.067 34.6581C263.488 36.2146 250.373 35.1018 238.374 27.9696C236.063 26.5963 234.139 24.5657 232.364 22.4897C235.893 24.0584 239.334 25.8834 242.97 27.1374C248.839 29.1614 254.954 28.9541 260.947 27.8336C271.213 25.9144 281.359 23.2476 291.68 21.7662C297.579 20.9194 303.723 21.7942 310.124 21.9C309.203 19.3699 308.249 15.9317 307.093 12.6953C309.2 13.3897 309.557 13.3703 311.369 13.9777Z" fill="#0B1B43"/>
<path d="M349.601 49.9669C348.58 49.1172 347.714 48.4265 346.525 47.4785C359.499 44.9969 361.011 46.618 365.751 52.732C362.622 52.518 359.299 51.6277 356.563 51.4405C356.746 51.7725 356.741 51.7021 357.107 52.1539C357.491 52.6262 359.411 53.2556 361.103 53.8518C355.869 55.6774 352.508 53.7914 349.601 49.9669Z" fill="#0B1B43"/>
</g>
<defs>
<clipPath id="clip0_5_17518">
<rect width="565" height="206" fill="white" transform="translate(0.507812)"/>
</clipPath>
</defs>
</svg>
