<svg width="328" height="328" viewBox="0 0 328 328" fill="none" xmlns="http://www.w3.org/2000/svg">
<g filter="url(#filter0_b_5_17575)">
<path d="M256.142 109.197V137.863C250.136 137.044 243.311 136.634 235.667 136.498V109.197C235.667 66.1992 223.519 37.5338 164.004 37.5338C104.489 37.5338 92.3405 66.1992 92.3405 109.197V136.498C84.6964 136.634 77.8713 137.044 71.8652 137.863V109.197C71.8652 69.6117 81.4203 17.0586 164.004 17.0586C246.587 17.0586 256.142 69.6117 256.142 109.197Z" fill="url(#paint0_linear_5_17575)"/>
<path opacity="0.4" d="M300.507 204.747V232.047C300.507 286.648 286.857 300.298 232.256 300.298H95.7547C41.1541 300.298 27.5039 286.648 27.5039 232.047V204.747C27.5039 159.155 37.059 142.093 71.867 137.861C77.873 137.042 84.6981 136.633 92.3422 136.496H235.669C243.313 136.633 250.138 137.042 256.144 137.861C290.952 142.093 300.507 159.155 300.507 204.747Z" fill="url(#paint1_linear_5_17575)"/>
<path d="M109.404 232.047C107.63 232.047 105.855 231.637 104.217 230.955C102.442 230.272 101.078 229.317 99.7126 228.088C97.2555 225.495 95.7539 221.946 95.7539 218.397C95.7539 216.622 96.1632 214.848 96.8457 213.21C97.5282 211.572 98.4841 210.07 99.7126 208.705C101.078 207.476 102.442 206.521 104.217 205.839C109.268 203.655 115.274 204.883 119.096 208.705C120.324 210.07 121.28 211.572 121.962 213.21C122.645 214.848 123.054 216.622 123.054 218.397C123.054 221.946 121.553 225.495 119.096 228.088C116.502 230.545 112.953 232.047 109.404 232.047Z" fill="url(#paint2_linear_5_17575)"/>
<path d="M164.006 232.052C160.32 232.052 156.908 230.55 154.314 228.093C153.086 226.728 152.13 225.227 151.447 223.589C150.765 221.951 150.355 220.176 150.355 218.402C150.355 214.716 151.857 211.303 154.314 208.71C159.365 203.659 168.51 203.659 173.697 208.71C176.154 211.303 177.656 214.716 177.656 218.402C177.656 220.176 177.246 221.951 176.564 223.589C175.881 225.227 174.926 226.728 173.697 228.093C171.104 230.55 167.555 232.052 164.006 232.052Z" fill="url(#paint3_linear_5_17575)"/>
<path d="M218.605 232.048C215.056 232.048 211.507 230.546 208.914 228.089C206.457 225.496 204.955 222.083 204.955 218.398C204.955 214.712 206.457 211.299 208.914 208.706C214.101 203.655 223.246 203.655 228.297 208.706C228.843 209.388 229.389 210.071 229.935 210.89C230.481 211.572 230.891 212.391 231.164 213.21C231.573 214.029 231.846 214.849 231.983 215.668C232.119 216.623 232.255 217.579 232.255 218.398C232.255 221.947 230.754 225.496 228.297 228.089C225.703 230.546 222.154 232.048 218.605 232.048Z" fill="url(#paint4_linear_5_17575)"/>
</g>
<defs>
<filter id="filter0_b_5_17575" x="-33.5247" y="-33.7239" width="395.051" height="395.053" filterUnits="userSpaceOnUse" color-interpolation-filters="sRGB">
<feFlood flood-opacity="0" result="BackgroundImageFix"/>
<feGaussianBlur in="BackgroundImageFix" stdDeviation="16.862"/>
<feComposite in2="SourceAlpha" operator="in" result="effect1_backgroundBlur_5_17575"/>
<feBlend mode="normal" in="SourceGraphic" in2="effect1_backgroundBlur_5_17575" result="shape"/>
</filter>
<linearGradient id="paint0_linear_5_17575" x1="274.55" y1="29.4226" x2="107.335" y2="159.528" gradientUnits="userSpaceOnUse">
<stop stop-color="#3AC2C2"/>
<stop offset="1" stop-color="#18B5D6"/>
</linearGradient>
<linearGradient id="paint1_linear_5_17575" x1="327.778" y1="153.261" x2="96.9191" y2="349.517" gradientUnits="userSpaceOnUse">
<stop stop-color="#3AC2C2"/>
<stop offset="1" stop-color="#18B5D6"/>
</linearGradient>
<linearGradient id="paint2_linear_5_17575" x1="125.781" y1="207.554" x2="94.2294" y2="223.657" gradientUnits="userSpaceOnUse">
<stop stop-color="#3AC2C2"/>
<stop offset="1" stop-color="#18B5D6"/>
</linearGradient>
<linearGradient id="paint3_linear_5_17575" x1="180.383" y1="207.699" x2="148.906" y2="223.855" gradientUnits="userSpaceOnUse">
<stop stop-color="#3AC2C2"/>
<stop offset="1" stop-color="#18B5D6"/>
</linearGradient>
<linearGradient id="paint4_linear_5_17575" x1="234.982" y1="207.695" x2="203.505" y2="223.851" gradientUnits="userSpaceOnUse">
<stop stop-color="#3AC2C2"/>
<stop offset="1" stop-color="#18B5D6"/>
</linearGradient>
</defs>
</svg>
