<svg width="89" height="89" viewBox="0 0 89 89" fill="none" xmlns="http://www.w3.org/2000/svg">
<path d="M76.1885 8.53125H60.7198C59.7169 8.53125 58.7551 8.92963 58.046 9.63875C57.3369 10.3479 56.9385 11.3097 56.9385 12.3125C56.9385 13.3153 57.3369 14.2771 58.046 14.9862C58.7551 15.6954 59.7169 16.0938 60.7198 16.0938H67.0602L56.6807 26.4733C44.9605 17.388 27.9776 18.2233 17.2285 28.9775C5.56852 40.6392 5.56852 59.6108 17.2354 71.2656C22.8481 76.8615 30.4504 80.0038 38.376 80.0038C46.3016 80.0038 53.904 76.8615 59.5166 71.2656C70.2709 60.5097 71.1062 43.5336 62.0209 31.8134L72.4073 21.4408V27.7812C72.4073 28.7841 72.8056 29.7459 73.5148 30.455C74.2239 31.1641 75.1857 31.5625 76.1885 31.5625C77.1914 31.5625 78.1531 31.1641 78.8623 30.455C79.5714 29.7459 79.9698 28.7841 79.9698 27.7812V12.3125C79.9698 11.8159 79.872 11.3242 79.6819 10.8655C79.4919 10.4067 79.2134 9.98987 78.8623 9.63875C78.5111 9.28763 78.0943 9.00911 77.6355 8.81908C77.1768 8.62906 76.6851 8.53125 76.1885 8.53125ZM54.1748 65.9238C49.9817 70.1081 44.2998 72.4582 38.376 72.4582C32.4522 72.4582 26.7704 70.1081 22.5773 65.9238C13.8649 57.2131 13.8649 43.0369 22.5773 34.3263C31.2896 25.6156 45.4641 25.6139 54.1748 34.3263C62.8854 43.0386 62.8871 57.2131 54.1748 65.9238Z" fill="#18B5D6"/>
</svg>
