<svg width="94" height="92" viewBox="0 0 94 92" fill="none" xmlns="http://www.w3.org/2000/svg">
<path d="M4.15521 65.7088V39.3219C4.15521 32.6153 8.39988 28.3706 15.1065 28.3706H25.3555V74.1557C25.3555 78.8673 21.4928 82.6875 16.7812 82.6875C16.4223 82.6451 12.1776 80.7774 9.12148 77.7212C6.06531 74.6226 4.15521 70.378 4.15521 65.7088Z" stroke="#3AC2C2" stroke-width="6.367" stroke-miterlimit="10" stroke-linecap="round" stroke-linejoin="round"/>
<path d="M90.2188 9.78181V61.4642V65.7088C90.2188 75.0895 85.9741 82.6875 73.2401 82.6875H68.9954H16.864C21.5331 82.6875 25.3534 78.8673 25.3534 74.1982V9.78181C25.3534 6.30119 28.1581 3.47789 32.2224 3.47789H83.4273C86.5377 3.47789 90.2188 6.25874 90.2188 9.78181Z" fill="url(#paint0_linear_2_1486)" stroke="url(#paint1_linear_2_1486)" stroke-width="6.367" stroke-miterlimit="10" stroke-linecap="round" stroke-linejoin="round"/>
<path d="M61.9023 23.9023H76.8163" stroke="white" stroke-width="5.5" stroke-linecap="round" stroke-linejoin="round"/>
<path d="M61.9023 34.8008H76.8163" stroke="white" stroke-width="5.5" stroke-linecap="round" stroke-linejoin="round"/>
<path opacity="0.3" d="M38.4648 45.6914H76.815" stroke="white" stroke-width="5.5" stroke-linecap="round" stroke-linejoin="round"/>
<path d="M38.4648 56.5859H76.815" stroke="white" stroke-width="5.5" stroke-linecap="round" stroke-linejoin="round"/>
<path d="M52.3146 32.4693V26.2374C52.3146 23.7969 51.3559 22.8164 48.9483 22.8164H42.8762C40.49 22.8164 39.5312 23.7969 39.5312 26.2374V32.4475C39.5312 34.9098 40.49 35.8903 42.8762 35.8903H48.9483C51.3559 35.8903 52.3146 34.9098 52.3146 32.4693Z" stroke="white" stroke-width="5.5" stroke-linecap="round" stroke-linejoin="round"/>
<defs>
<linearGradient id="paint0_linear_2_1486" x1="9.53646" y1="74.5806" x2="96.9024" y2="33.312" gradientUnits="userSpaceOnUse">
<stop stop-color="#3AC2C2"/>
<stop offset="1" stop-color="#18B5D6"/>
</linearGradient>
<linearGradient id="paint1_linear_2_1486" x1="9.53646" y1="74.5806" x2="96.9024" y2="33.312" gradientUnits="userSpaceOnUse">
<stop stop-color="#3AC2C2"/>
<stop offset="1" stop-color="#18B5D6"/>
</linearGradient>
</defs>
</svg>
