<svg width="102" height="103" viewBox="0 0 102 103" fill="none" xmlns="http://www.w3.org/2000/svg">
<path d="M80.9766 81.76C97.5533 65.1833 97.5533 38.3468 80.9766 21.8125" stroke="white" stroke-width="6.35934" stroke-linecap="round" stroke-linejoin="round"/>
<path d="M21.0185 21.8125C4.44176 38.3892 4.44176 65.2257 21.0185 81.76" stroke="white" stroke-width="6.35934" stroke-linecap="round" stroke-linejoin="round"/>
<path d="M37.0078 91.6836C41.5441 93.2522 46.25 94.0156 50.9983 94.0156C55.7466 93.9732 60.4525 93.2522 64.9888 91.6836" stroke="white" stroke-width="6.35934" stroke-linecap="round" stroke-linejoin="round"/>
<path d="M37.0078 11.8906C41.5441 10.3219 46.25 9.55859 50.9983 9.55859C55.7466 9.55859 60.4525 10.3219 64.9888 11.8906" stroke="white" stroke-width="6.35934" stroke-linecap="round" stroke-linejoin="round"/>
<path opacity="0.4" d="M37.1719 51.7879V44.7079C37.1719 35.8896 43.4041 32.2859 51.0353 36.6951L57.1826 40.2564L63.33 43.8175C70.9612 48.2266 70.9612 55.434 63.33 59.8432L57.1826 63.4043L51.0353 66.9656C43.4041 71.3748 37.1719 67.7711 37.1719 58.9528V51.7879Z" stroke="white" stroke-width="6.35934" stroke-miterlimit="10" stroke-linecap="round" stroke-linejoin="round"/>
</svg>
