<svg width="93" height="94" viewBox="0 0 93 94" fill="none" xmlns="http://www.w3.org/2000/svg">
<path d="M64.74 11.5284H72.0358C75.7382 11.5284 78.0922 12.4994 79.5319 13.9392C80.9717 15.3789 81.9427 17.7329 81.9427 21.4353V28.7311C81.9427 32.4335 80.9717 34.7875 79.5319 36.2272C78.0922 37.667 75.7382 38.638 72.0358 38.638H64.74C61.0376 38.638 58.6836 37.667 57.2439 36.2272C55.8041 34.7875 54.833 32.4335 54.833 28.7311V21.4353C54.833 17.7329 55.8041 15.3789 57.2439 13.9392C58.6836 12.4994 61.0376 11.5284 64.74 11.5284Z" stroke="url(#paint0_linear_75_7002)" stroke-width="5.75985"/>
<path d="M38.0092 65.3512H38.0091V65.3643V72.6601C38.0091 76.3626 37.0381 78.7165 35.5983 80.1563C34.1586 81.596 31.8046 82.5671 28.1022 82.5671H20.8064C17.104 82.5671 14.7517 81.5961 13.3125 80.1537C11.8723 78.7103 10.8995 76.3467 10.8995 72.6217V65.3259C10.8995 61.6235 11.8704 59.2712 13.3128 57.8321C14.7562 56.3919 17.1198 55.419 20.8448 55.419H28.1406C31.844 55.419 34.1942 56.3904 35.6274 57.83C37.0605 59.2695 38.0262 61.6286 38.0092 65.3512Z" stroke="url(#paint1_linear_75_7002)" stroke-width="5.75985"/>
<path d="M38.0859 25.1216C38.0859 32.6289 32 38.7148 24.4927 38.7148C16.9854 38.7148 10.8995 32.6289 10.8995 25.1216C10.8995 17.6143 16.9854 11.5284 24.4927 11.5284C32 11.5284 38.0859 17.6143 38.0859 25.1216Z" stroke="white" stroke-width="5.75985"/>
<path d="M81.9453 68.981C81.9453 76.4883 75.8594 82.5742 68.3521 82.5742C60.8447 82.5742 54.7588 76.4883 54.7588 68.981C54.7588 61.4736 60.8447 55.3877 68.3521 55.3877C75.8594 55.3877 81.9453 61.4736 81.9453 68.981Z" stroke="white" stroke-width="5.75985"/>
<defs>
<linearGradient id="paint0_linear_75_7002" x1="88.1061" y1="12.0126" x2="50.1089" y2="31.3937" gradientUnits="userSpaceOnUse">
<stop stop-color="#3AC2C2"/>
<stop offset="1" stop-color="#18B5D6"/>
</linearGradient>
<linearGradient id="paint1_linear_75_7002" x1="44.1727" y1="55.9071" x2="6.15713" y2="75.2752" gradientUnits="userSpaceOnUse">
<stop stop-color="#3AC2C2"/>
<stop offset="1" stop-color="#18B5D6"/>
</linearGradient>
</defs>
</svg>
