<svg width="93" height="94" viewBox="0 0 93 94" fill="none" xmlns="http://www.w3.org/2000/svg">
<path d="M64.7341 11.5284H72.0299C75.7324 11.5284 78.0863 12.4994 79.5261 13.9392C80.9658 15.3789 81.9369 17.7329 81.9369 21.4353V28.7311C81.9369 32.4335 80.9658 34.7875 79.5261 36.2272C78.0863 37.667 75.7324 38.638 72.0299 38.638H64.7341C61.0317 38.638 58.6777 37.667 57.238 36.2272C55.7983 34.7875 54.8272 32.4335 54.8272 28.7311V21.4353C54.8272 17.7329 55.7983 15.3789 57.238 13.9392C58.6777 12.4994 61.0317 11.5284 64.7341 11.5284Z" fill="url(#paint0_linear_75_7050)" stroke="url(#paint1_linear_75_7050)" stroke-width="5.75985"/>
<path d="M38.0111 65.3492H38.0111V65.3624V72.6582C38.0111 76.3606 37.04 78.7146 35.6003 80.1543C34.1606 81.594 31.8066 82.5651 28.1042 82.5651H20.8083C17.1059 82.5651 14.7536 81.5941 13.3145 80.1518C11.8743 78.7084 10.9014 76.3448 10.9014 72.6198V65.324C10.9014 61.6216 11.8724 59.2692 13.3147 57.8301C14.7581 56.3899 17.1217 55.417 20.8467 55.417H28.1425C31.846 55.417 34.1962 56.3885 35.6293 57.8281C37.0624 59.2676 38.0281 61.6266 38.0111 65.3492Z" fill="url(#paint2_linear_75_7050)" stroke="url(#paint3_linear_75_7050)" stroke-width="5.75985"/>
<path d="M38.0879 25.1216C38.0879 32.6289 32.002 38.7148 24.4946 38.7148C16.9873 38.7148 10.9014 32.6289 10.9014 25.1216C10.9014 17.6143 16.9873 11.5284 24.4946 11.5284C32.002 11.5284 38.0879 17.6143 38.0879 25.1216Z" fill="#252151" stroke="#212851" stroke-width="5.75985"/>
<path d="M81.9394 68.9732C81.9394 76.4805 75.8535 82.5664 68.3462 82.5664C60.8389 82.5664 54.753 76.4805 54.753 68.9732C54.753 61.4658 60.8389 55.3799 68.3462 55.3799C75.8535 55.3799 81.9394 61.4658 81.9394 68.9732Z" fill="#252151" stroke="#212851" stroke-width="5.75985"/>
<defs>
<linearGradient id="paint0_linear_75_7050" x1="88.1002" y1="12.0126" x2="50.1031" y2="31.3937" gradientUnits="userSpaceOnUse">
<stop stop-color="#3AC2C2"/>
<stop offset="1" stop-color="#18B5D6"/>
</linearGradient>
<linearGradient id="paint1_linear_75_7050" x1="88.1002" y1="12.0126" x2="50.1031" y2="31.3937" gradientUnits="userSpaceOnUse">
<stop stop-color="#3AC2C2"/>
<stop offset="1" stop-color="#18B5D6"/>
</linearGradient>
<linearGradient id="paint2_linear_75_7050" x1="44.1747" y1="55.9052" x2="6.15908" y2="75.2732" gradientUnits="userSpaceOnUse">
<stop stop-color="#3AC2C2"/>
<stop offset="1" stop-color="#18B5D6"/>
</linearGradient>
<linearGradient id="paint3_linear_75_7050" x1="44.1747" y1="55.9052" x2="6.15908" y2="75.2732" gradientUnits="userSpaceOnUse">
<stop stop-color="#3AC2C2"/>
<stop offset="1" stop-color="#18B5D6"/>
</linearGradient>
</defs>
</svg>
