<svg width="88" height="95" viewBox="0 0 88 95" fill="none" xmlns="http://www.w3.org/2000/svg">
<path d="M79.7865 38.3886L78.9445 64.2073C78.8627 66.7138 77.2289 68.9044 74.8497 69.6975C72.15 70.5974 69.1897 69.4747 67.7657 67.0109L59.1307 52.0711C57.7266 49.6043 55.0174 49.0576 52.9825 49.7277C50.9167 50.4079 49.0911 52.4861 49.4767 55.3208L50.375 63.5764C51.0735 69.9952 51.5599 74.5186 51.5063 77.8836C51.4527 81.2397 50.8555 82.7451 50.0237 83.645C49.4397 84.2768 48.7493 84.801 47.9838 85.1936C46.8934 85.7529 45.2829 85.9236 42.0359 85.0731C38.7803 84.2204 34.554 82.5361 28.5592 80.1382C25.4881 78.9097 23.3953 78.0688 21.8362 77.2568C20.3314 76.4731 19.5836 75.8431 19.0869 75.1727C18.7561 74.7264 18.4771 74.2439 18.2552 73.7346C17.922 72.9697 17.749 72.0073 17.8204 70.3121C17.8943 68.5558 18.2094 66.3225 18.6766 63.048L21.5458 42.9384C21.5459 42.9381 21.5459 42.9377 21.546 42.9373C22.4636 36.5249 25.663 30.6585 30.557 26.4146C35.4513 22.1705 41.712 19.8339 48.1901 19.8337C48.1901 19.8337 48.1902 19.8337 48.1902 19.8337H75.8622C76.1086 19.8337 76.2421 19.9033 76.3276 19.9695C76.4318 20.0503 76.5335 20.1847 76.5916 20.3646C76.6497 20.5445 76.6458 20.713 76.6085 20.8396C76.5779 20.9432 76.5103 21.0778 76.3104 21.2218C72.0206 24.3139 72.9173 30.2352 76.268 33.0197C78.6179 34.9725 79.7664 36.8222 79.7865 38.3886Z" stroke="#F8F8F8" stroke-width="6.14"/>
<path d="M8.50065 66.4271V66.4271C5.32156 65.1554 3.42439 61.8746 3.90802 58.485L8.06732 29.3337C9.08938 22.1895 12.6538 15.6534 18.1063 10.9253C23.5588 6.19711 30.5336 3.59402 37.7507 3.59375H57.4511C60.3562 3.59375 62.7112 5.94876 62.7112 8.85381V8.85381V11.4838" stroke="#F8F8F8" stroke-width="6.14" stroke-linecap="round"/>
</svg>
