<svg width="85" height="91" viewBox="0 0 85 91" fill="none" xmlns="http://www.w3.org/2000/svg">
<path d="M7.81543 12.6614C7.81543 6.17044 13.0773 0.820312 19.5683 0.820312C34.631 0.820312 49.7455 0.820312 65.1107 0.820312C71.6017 0.820312 76.8641 5.99414 76.8641 12.4851C76.8641 18.9761 71.6022 24.3262 65.1112 24.3262C50.0485 24.3262 34.934 24.3262 19.5688 24.3262C13.0778 24.3262 7.81543 19.1524 7.81543 12.6614Z" fill="#D7D6D5"/>
<path d="M15.4967 54.9867C17.4748 54.9797 17.4748 54.9797 19.4929 54.9727C21.6437 54.9771 21.6437 54.9771 23.838 54.9817C25.2998 54.9803 26.7617 54.9789 28.2678 54.9774C31.3652 54.9764 34.4627 54.9791 37.5601 54.9853C42.3193 54.9931 47.0782 54.9853 51.8374 54.9759C54.8388 54.9769 57.8401 54.9788 60.8415 54.9817C62.2754 54.9787 63.7093 54.9757 65.1866 54.9727C66.5053 54.9773 67.8241 54.9819 69.1828 54.9867C70.9329 54.9884 70.9329 54.9884 72.7184 54.9902C75.692 55.1975 76.8641 58.3205 76.8641 61.3013C76.8641 62.6856 76.8641 64.0715 76.8641 65.4606C76.8641 72.763 70.9444 78.6827 63.6421 78.6827C49.5458 78.6827 35.3987 78.6827 21.0376 78.6827C13.7352 78.6827 7.68733 72.7479 7.91981 65.4493C8.25283 54.9939 9.64841 54.9925 15.4967 54.9867Z" fill="#3AC2C2"/>
<path d="M7.81543 39.8315C7.81543 33.7462 12.7485 28.7305 18.8338 28.7305C34.3798 28.7305 49.9775 28.7305 65.8456 28.7305C71.9309 28.7305 76.8641 33.5809 76.8641 39.6662C76.8641 45.7515 71.931 50.7673 65.8457 50.7673C50.2997 50.7673 34.702 50.7673 18.8339 50.7673C12.7486 50.7673 7.81543 45.9168 7.81543 39.8315Z" fill="#E78034"/>
<path d="M1.38574 88.2285C0.922129 86.3741 2.31993 84.5586 4.23146 84.5586C29.3935 84.5586 54.5871 84.5586 80.4443 84.5586C82.3558 84.5586 83.7646 86.3326 83.301 88.187C82.974 89.4951 81.7931 90.4351 80.4449 90.4351C55.2873 90.4351 30.1091 90.4351 4.23171 90.4351C2.88345 90.4351 1.71275 89.5365 1.38574 88.2285Z" fill="#5D5D5F"/>
</svg>
