<svg width="162" height="162" viewBox="0 0 162 162" fill="none" xmlns="http://www.w3.org/2000/svg">
<g clip-path="url(#clip0_181_13381)">
<path opacity="0.2" d="M80.6561 161.15C102.005 161.15 122.479 152.669 137.575 137.574C152.67 122.478 161.151 102.004 161.151 80.6551C161.151 59.3065 152.67 38.8323 137.575 23.7366C122.479 8.64085 102.005 0.160156 80.6561 0.160156C59.3075 0.160156 38.8333 8.64085 23.7376 23.7366C8.64183 38.8323 0.161133 59.3065 0.161133 80.6551C0.161133 102.004 8.64183 122.478 23.7376 137.574C38.8333 152.669 59.3075 161.15 80.6561 161.15ZM55.6272 55.5004C58.2957 55.5004 60.855 56.5605 62.742 58.4475C64.629 60.3344 65.689 62.8937 65.689 65.5623C65.689 68.2309 64.629 70.7901 62.742 72.6771C60.855 74.5641 58.2957 75.6242 55.6272 75.6242C52.9586 75.6242 50.3993 74.5641 48.5124 72.6771C46.6254 70.7901 45.5653 68.2309 45.5653 65.5623C45.5653 62.8937 46.6254 60.3344 48.5124 58.4475C50.3993 56.5605 52.9586 55.5004 55.6272 55.5004ZM95.8746 65.5623C95.8746 62.8937 96.9347 60.3344 98.8217 58.4475C100.709 56.5605 103.268 55.5004 105.936 55.5004C108.605 55.5004 111.164 56.5605 113.051 58.4475C114.938 60.3344 115.998 62.8937 115.998 65.5623C115.998 68.2309 114.938 70.7901 113.051 72.6771C111.164 74.5641 108.605 75.6242 105.936 75.6242C103.268 75.6242 100.709 74.5641 98.8217 72.6771C96.9347 70.7901 95.8746 68.2309 95.8746 65.5623ZM50.4705 105.81H110.842C113.609 105.81 115.873 108.074 115.873 110.841C115.873 113.608 113.609 115.872 110.842 115.872H50.4705C47.7034 115.872 45.4395 113.608 45.4395 110.841C45.4395 108.074 47.7034 105.81 50.4705 105.81Z" fill="#212851"/>
</g>
<defs>
<clipPath id="clip0_181_13381">
<rect width="160.99" height="160.99" fill="white" transform="translate(0.161133 0.160156)"/>
</clipPath>
</defs>
</svg>
