<svg width="98" height="97" viewBox="0 0 98 97" fill="none" xmlns="http://www.w3.org/2000/svg">
<path d="M48.9215 12.4297C35.5435 12.4297 24.6715 23.1897 24.6715 36.4297V47.9897C24.6715 50.4297 23.6206 54.1497 22.3677 56.2297L17.7198 63.8697C14.8502 68.5897 16.8306 73.8297 22.0848 75.5897C39.5044 81.3497 58.2981 81.3497 75.7177 75.5897C80.6081 73.9897 82.7502 68.2697 80.0827 63.8697L75.4348 56.2297C74.2223 54.1497 73.1715 50.4297 73.1715 47.9897V36.4297C73.1715 23.2297 62.259 12.4297 48.9215 12.4297Z" stroke="#F8F8F8" stroke-width="6.35934" stroke-miterlimit="10" stroke-linecap="round"/>
<path d="M56.3995 13.5947C55.1466 13.2347 53.8532 12.9547 52.5195 12.7947C48.6395 12.3147 44.9211 12.5947 41.4453 13.5947C42.6174 10.6347 45.5274 8.55469 48.9224 8.55469C52.3174 8.55469 55.2274 10.6347 56.3995 13.5947Z" stroke="#F8F8F8" stroke-width="6.35934" stroke-miterlimit="10" stroke-linecap="round" stroke-linejoin="round"/>
<path opacity="0.4" d="M61.0391 77.0352C61.0391 83.6352 55.5828 89.0352 48.9141 89.0352C45.5999 89.0352 42.5282 87.6752 40.3457 85.5152C38.1632 83.3552 36.7891 80.3152 36.7891 77.0352" stroke="#F8F8F8" stroke-width="6.35934" stroke-miterlimit="10"/>
</svg>
