<svg width="117" height="117" viewBox="0 0 117 117" fill="none" xmlns="http://www.w3.org/2000/svg">
<path d="M49.5996 24.0829V92.627C49.5996 95.6141 48.9585 97.0743 48.1159 97.868C47.2364 98.6963 45.5856 99.3272 42.321 99.3272H24.8235C21.5589 99.3272 19.9081 98.6963 19.0286 97.868C18.186 97.0743 17.5449 95.6141 17.5449 92.627V24.0829C17.5449 21.0959 18.186 19.6356 19.0286 18.842C19.9081 18.0137 21.5589 17.3828 24.8235 17.3828H42.321C45.5856 17.3828 47.2364 18.0137 48.1159 18.842C48.9585 19.6356 49.5996 21.0959 49.5996 24.0829Z" fill="white" stroke="white" stroke-width="4.82026"/>
<path d="M99.4863 24.0829V92.627C99.4863 95.6141 98.8452 97.0743 98.0026 97.868C97.1231 98.6963 95.4723 99.3272 92.2077 99.3272H74.7102C71.4456 99.3272 69.7948 98.6963 68.9154 97.868C68.0727 97.0743 67.4316 95.6141 67.4316 92.627V24.0829C67.4316 21.106 68.0802 19.6426 68.93 18.8452C69.8183 18.0118 71.4744 17.3828 74.7102 17.3828H92.2077C95.4723 17.3828 97.1231 18.0137 98.0026 18.842C98.8452 19.6356 99.4863 21.0959 99.4863 24.0829Z" fill="white" stroke="white" stroke-width="4.82026"/>
</svg>
