<svg width="85" height="86" viewBox="0 0 85 86" fill="none" xmlns="http://www.w3.org/2000/svg">
<g opacity="0.8">
<path d="M76.3104 60.646L65.2928 34.9148C61.5616 26.1852 54.6976 25.8332 50.0864 34.1404L43.4336 46.1436C40.0544 52.2332 33.7536 52.7612 29.3888 47.3052L28.6144 46.3196C24.0736 40.6172 17.6672 41.3212 14.3936 47.8332L8.33917 59.9772C4.07997 68.4252 10.24 78.3868 19.6736 78.3868H64.5888C73.7408 78.3868 79.9008 69.0588 76.3104 60.646Z" stroke="#212851" stroke-width="5.76" stroke-linecap="round" stroke-linejoin="round"/>
<path opacity="0.4" d="M24.5307 29.1071C30.3628 29.1071 35.0907 24.3792 35.0907 18.5471C35.0907 12.7149 30.3628 7.98706 24.5307 7.98706C18.6986 7.98706 13.9707 12.7149 13.9707 18.5471C13.9707 24.3792 18.6986 29.1071 24.5307 29.1071Z" stroke="#212851" stroke-width="5.76" stroke-linecap="round" stroke-linejoin="round"/>
</g>
</svg>
