<svg width="342" height="343" viewBox="0 0 342 343" fill="none" xmlns="http://www.w3.org/2000/svg">
<path d="M171.003 29.2109C133.668 29.2109 103.315 59.5634 103.315 96.8984C103.315 133.521 131.958 163.161 169.293 164.443C170.433 164.301 171.573 164.301 172.428 164.443C172.713 164.443 172.855 164.443 173.14 164.443C173.283 164.443 173.283 164.443 173.425 164.443C209.905 163.161 238.548 133.521 238.69 96.8984C238.69 59.5634 208.338 29.2109 171.003 29.2109Z" fill="url(#paint0_linear_166_5849)"/>
<path opacity="0.4" d="M243.406 202.332C203.649 175.827 138.811 175.827 98.7688 202.332C80.6713 214.444 70.6963 230.832 70.6963 248.359C70.6963 265.887 80.6713 282.132 98.6263 294.102C118.576 307.497 144.796 314.194 171.016 314.194C197.236 314.194 223.456 307.497 243.406 294.102C261.361 281.989 271.336 265.744 271.336 248.074C271.194 230.547 261.361 214.302 243.406 202.332Z" fill="url(#paint1_linear_166_5849)"/>
<path d="M199.503 237.672H181.69V219.859C181.69 214.017 176.845 209.172 171.003 209.172C165.16 209.172 160.315 214.017 160.315 219.859V237.672H142.503C136.66 237.672 131.815 242.517 131.815 248.359C131.815 254.202 136.66 259.047 142.503 259.047H160.315V276.859C160.315 282.702 165.16 287.547 171.003 287.547C176.845 287.547 181.69 282.702 181.69 276.859V259.047H199.503C205.345 259.047 210.19 254.202 210.19 248.359C210.19 242.517 205.345 237.672 199.503 237.672Z" fill="url(#paint2_linear_166_5849)"/>
<defs>
<linearGradient id="paint0_linear_166_5849" x1="252.213" y1="43.0517" x2="95.7881" y2="122.923" gradientUnits="userSpaceOnUse">
<stop stop-color="#3AC2C2"/>
<stop offset="1" stop-color="#18B5D6"/>
</linearGradient>
<linearGradient id="paint1_linear_166_5849" x1="291.379" y1="195.937" x2="109.096" y2="337.539" gradientUnits="userSpaceOnUse">
<stop stop-color="#3AC2C2"/>
<stop offset="1" stop-color="#18B5D6"/>
</linearGradient>
<linearGradient id="paint2_linear_166_5849" x1="218.019" y1="217.193" x2="127.418" y2="263.406" gradientUnits="userSpaceOnUse">
<stop stop-color="#3AC2C2"/>
<stop offset="1" stop-color="#18B5D6"/>
</linearGradient>
</defs>
</svg>
