<svg width="88" height="88" viewBox="0 0 88 88" fill="none" xmlns="http://www.w3.org/2000/svg">
<g opacity="0.4">
<path d="M67.8689 71.3672H53.2551" stroke="white" stroke-width="5.8" stroke-linecap="round" stroke-linejoin="round"/>
<path d="M60.562 78.6724V64.0586" stroke="white" stroke-width="5.8" stroke-linecap="round" stroke-linejoin="round"/>
</g>
<path opacity="0.4" d="M44.7059 39.8397C44.3406 39.8032 43.9022 39.8032 43.5003 39.8397C34.8051 39.5474 27.9 32.4232 27.9 23.6549C27.8635 14.704 35.1339 7.43359 44.0848 7.43359C53.0358 7.43359 60.3062 14.704 60.3062 23.6549C60.3062 32.4232 53.3646 39.5474 44.7059 39.8397Z" stroke="white" stroke-width="5.8" stroke-linecap="round" stroke-linejoin="round"/>
<path d="M44.085 79.8066C37.4357 79.8066 30.8229 78.126 25.7812 74.7649C16.9398 68.8463 16.9398 59.2012 25.7812 53.3191C35.8282 46.5968 52.3052 46.5968 62.3522 53.3191" stroke="white" stroke-width="5.8" stroke-linecap="round" stroke-linejoin="round"/>
</svg>
