<svg width="89" height="88" viewBox="0 0 89 88" fill="none" xmlns="http://www.w3.org/2000/svg">
<g opacity="0.8">
<path opacity="0.4" d="M45.3684 39.8202C45.003 39.7836 44.5646 39.7836 44.1627 39.8202C35.4675 39.5279 28.5625 32.4037 28.5625 23.6354C28.5625 14.6844 35.7963 7.41406 44.7838 7.41406C53.7348 7.41406 61.0052 14.6844 61.0052 23.6354C60.9686 32.4037 54.0636 39.5279 45.3684 39.8202Z" stroke="#212851" stroke-width="5.48018" stroke-linecap="round" stroke-linejoin="round"/>
<path d="M27.0998 53.2995C18.2584 59.2181 18.2584 68.8632 27.0998 74.7453C37.1468 81.4676 53.6238 81.4676 63.6708 74.7453C72.5122 68.8267 72.5122 59.1816 63.6708 53.2995C53.6604 46.6137 37.1833 46.6137 27.0998 53.2995Z" stroke="#212851" stroke-width="5.48018" stroke-linecap="round" stroke-linejoin="round"/>
</g>
</svg>
