<svg width="97" height="97" viewBox="0 0 97 97" fill="none" xmlns="http://www.w3.org/2000/svg">
<g clip-path="url(#clip0_2_4822)">
<path d="M48.7684 8.08594C70.931 8.08594 88.8962 26.0511 88.8962 48.2137C88.8962 70.3763 70.931 88.3415 48.7684 88.3415C26.6058 88.3415 8.64062 70.3763 8.64062 48.2137C8.64062 26.0511 26.6058 8.08594 48.7684 8.08594ZM56.7939 53.8316L50.518 58.8516C50.2977 59.0279 50.117 59.2487 49.9879 59.4996C49.8587 59.7505 49.784 60.0258 49.7684 60.3076C49.7529 60.5893 49.797 60.8712 49.8978 61.1347C49.9986 61.3983 50.1539 61.6376 50.3534 61.8371L55.3253 66.8089C56.288 67.7728 56.9896 68.966 57.3638 70.276L58.066 72.7358C58.3572 73.7678 58.8745 74.7221 59.5803 75.5293C60.2862 76.3365 61.163 76.9765 62.147 77.4026C65.9866 75.6409 69.4407 73.1386 72.3114 70.0392L71.3724 62.5072C71.208 61.1968 70.7229 59.9472 69.9599 58.8692C69.1969 57.7912 68.1797 56.9182 66.9984 56.3275L61.0997 53.3741C60.4134 53.0307 59.643 52.8912 58.8798 52.9723C58.1167 53.0534 57.3928 53.3516 56.7939 53.8316ZM48.7684 16.1115C43.8571 16.1082 39.0107 17.2333 34.6031 19.3998C30.1956 21.5664 26.3446 24.7166 23.3475 28.6073L22.6853 29.4941V36.2556C22.6848 38.7054 23.4318 41.0971 24.8264 43.1112C26.221 45.1253 28.1969 46.666 30.4902 47.5275L31.2045 47.7683L36.381 49.3533C41.8905 51.0387 47.2556 46.5564 46.7219 40.9426L46.6456 40.3607L45.9434 36.1513C45.7882 35.2189 45.9672 34.2616 46.4488 33.4482C46.9303 32.6348 47.6836 32.0175 48.5758 31.7051L49.0092 31.5848L51.465 31.023C52.8584 30.7045 54.1738 30.1101 55.3338 29.2749C56.4937 28.4398 57.4746 27.3807 58.2185 26.1602C58.9625 24.9398 59.4544 23.5827 59.6653 22.169C59.8762 20.7553 59.8017 19.3137 59.4464 17.9293C56.0157 16.7229 52.405 16.1082 48.7684 16.1115Z" fill="#212851"/>
</g>
<defs>
<clipPath id="clip0_2_4822">
<rect width="96.3066" height="96.3066" fill="white" transform="translate(0.615234 0.0585938)"/>
</clipPath>
</defs>
</svg>
