<svg width="85" height="91" viewBox="0 0 85 91" fill="none" xmlns="http://www.w3.org/2000/svg">
<path d="M7.92725 12.6614C7.92725 6.17044 13.1891 0.820312 19.6801 0.820312C34.7428 0.820312 49.8573 0.820312 65.2225 0.820312C71.7135 0.820312 76.9759 5.99414 76.9759 12.4851C76.9759 18.9761 71.714 24.3262 65.223 24.3262C50.1603 24.3262 35.0458 24.3262 19.6806 24.3262C13.1896 24.3262 7.92725 19.1524 7.92725 12.6614Z" fill="#D7D6D5"/>
<path d="M15.6086 54.9867C17.5867 54.9797 17.5867 54.9797 19.6047 54.9727C21.7555 54.9771 21.7555 54.9771 23.9498 54.9817C25.4117 54.9803 26.8735 54.9789 28.3796 54.9774C31.477 54.9764 34.5745 54.9791 37.6719 54.9853C42.4311 54.9931 47.19 54.9853 51.9492 54.9759C54.9506 54.9769 57.9519 54.9788 60.9533 54.9817C62.3872 54.9787 63.8211 54.9757 65.2984 54.9727C66.6172 54.9773 67.9359 54.9819 69.2946 54.9867C71.0447 54.9884 71.0447 54.9884 72.8302 54.9902C75.8038 55.1975 76.9759 58.3205 76.9759 61.3013C76.9759 62.6856 76.9759 64.0715 76.9759 65.4606C76.9759 72.763 71.0562 78.6827 63.7539 78.6827C49.6577 78.6827 35.5105 78.6827 21.1494 78.6827C13.847 78.6827 7.79914 72.7479 8.03162 65.4493C8.36465 54.9939 9.76023 54.9925 15.6086 54.9867Z" fill="#3AC2C2"/>
<path d="M7.92725 39.8315C7.92725 33.7462 12.8603 28.7305 18.9456 28.7305C34.4916 28.7305 50.0893 28.7305 65.9574 28.7305C72.0427 28.7305 76.9759 33.5809 76.9759 39.6662C76.9759 45.7515 72.0428 50.7673 65.9575 50.7673C50.4116 50.7673 34.8139 50.7673 18.9457 50.7673C12.8604 50.7673 7.92725 45.9168 7.92725 39.8315Z" fill="#D7D6D5"/>
<path d="M1.49756 88.2285C1.03395 86.3741 2.43174 84.5586 4.34328 84.5586C29.5054 84.5586 54.699 84.5586 80.5561 84.5586C82.4676 84.5586 83.8764 86.3326 83.4128 88.187C83.0858 89.4951 81.9049 90.4351 80.5567 90.4351C55.3991 90.4351 30.2209 90.4351 4.34353 90.4351C2.99526 90.4351 1.82456 89.5365 1.49756 88.2285Z" fill="#5D5D5F"/>
</svg>
