<svg width="168" height="169" viewBox="0 0 168 169" fill="none" xmlns="http://www.w3.org/2000/svg">
<g clip-path="url(#clip0_181_13379)">
<path opacity="0.2" d="M1.08594 85.4093C1.08594 63.4163 9.82265 42.324 25.3741 26.7725C40.9255 11.2211 62.0178 2.48438 84.0109 2.48438C106.004 2.48438 127.096 11.2211 142.648 26.7725C158.199 42.324 166.936 63.4163 166.936 85.4093C166.936 107.402 158.199 128.495 142.648 144.046C127.096 159.598 106.004 168.334 84.0109 168.334C62.0178 168.334 40.9255 159.598 25.3741 144.046C9.82265 128.495 1.08594 107.402 1.08594 85.4093ZM58.0968 80.2265C60.846 80.2265 63.4825 79.1344 65.4264 77.1905C67.3704 75.2466 68.4625 72.61 68.4625 69.8609C68.4625 67.1118 67.3704 64.4752 65.4264 62.5313C63.4825 60.5874 60.846 59.4953 58.0968 59.4953C55.3477 59.4953 52.7112 60.5874 50.7672 62.5313C48.8233 64.4752 47.7312 67.1118 47.7312 69.8609C47.7312 72.61 48.8233 75.2466 50.7672 77.1905C52.7112 79.1344 55.3477 80.2265 58.0968 80.2265ZM120.291 69.8609C120.291 67.1118 119.198 64.4752 117.255 62.5313C115.311 60.5874 112.674 59.4953 109.925 59.4953C107.176 59.4953 104.539 60.5874 102.595 62.5313C100.651 64.4752 99.5593 67.1118 99.5593 69.8609C99.5593 72.61 100.651 75.2466 102.595 77.1905C104.539 79.1344 107.176 80.2265 109.925 80.2265C112.674 80.2265 115.311 79.1344 117.255 77.1905C119.198 75.2466 120.291 72.61 120.291 69.8609ZM120.933 120.549C124.831 116.921 121.628 113.127 121.503 112.982L121.006 112.422C120.429 111.807 119.827 111.216 119.202 110.65C117.063 108.719 114.729 107.017 112.236 105.57C106.017 101.901 96.688 98.3664 84.0316 98.3664C71.3752 98.3664 62.0462 101.891 55.8164 105.56C52.7067 107.374 50.4056 109.219 48.83 110.639C48.0189 111.375 47.2473 112.154 46.5184 112.972L46.3733 113.158L46.3215 113.22L46.3008 113.241L46.2904 113.251L50.3226 116.506L46.28 113.262C45.456 114.334 45.0834 115.685 45.2418 117.028C45.4002 118.371 46.0771 119.598 47.1279 120.449C48.1788 121.3 49.5205 121.706 50.8668 121.581C52.213 121.457 53.4573 120.811 54.3341 119.782L54.3652 119.751L54.6036 119.481C54.9853 119.078 55.3829 118.691 55.7957 118.32C57.4123 116.865 59.1772 115.583 61.0614 114.495C65.8607 111.676 73.3965 108.732 84.0316 108.732C94.6667 108.732 102.192 111.676 106.971 114.495C109.386 115.915 111.117 117.315 112.226 118.32C112.722 118.77 113.196 119.244 113.646 119.74L113.677 119.771C114.54 120.831 115.786 121.508 117.145 121.654C118.504 121.799 119.866 121.402 120.933 120.549Z" fill="#212851"/>
</g>
<defs>
<clipPath id="clip0_181_13379">
<rect width="166.306" height="167.824" fill="white" transform="translate(0.855469 0.742188)"/>
</clipPath>
</defs>
</svg>
