<svg width="89" height="88" viewBox="0 0 89 88" fill="none" xmlns="http://www.w3.org/2000/svg">
<g opacity="0.8">
<path opacity="0.4" d="M53.373 69.7603L58.9263 75.3135L70.0328 64.207" stroke="#212851" stroke-width="5.48018" stroke-linecap="round" stroke-linejoin="round"/>
<path opacity="0.4" d="M45.0394 39.871C44.6741 39.8344 44.2357 39.8344 43.8338 39.871C35.1386 39.5787 28.2335 32.4545 28.2335 23.6862C28.197 14.7352 35.4674 7.46484 44.4183 7.46484C53.3693 7.46484 60.6397 14.7352 60.6397 23.6862C60.6397 32.4545 53.6981 39.5787 45.0394 39.871Z" stroke="#212851" stroke-width="5.48018" stroke-linecap="round" stroke-linejoin="round"/>
<path d="M44.4202 79.8379C37.7709 79.8379 31.1581 78.1573 26.1164 74.7961C17.275 68.8775 17.275 59.2324 26.1164 53.3504C36.1634 46.628 52.6404 46.628 62.6874 53.3504" stroke="#212851" stroke-width="5.48018" stroke-linecap="round" stroke-linejoin="round"/>
</g>
</svg>
