<svg width="97" height="97" viewBox="0 0 97 97" fill="none" xmlns="http://www.w3.org/2000/svg">
<g opacity="0.8">
<path opacity="0.34" d="M48.7514 60.7801C55.3698 60.7801 60.7352 55.4148 60.7352 48.7963C60.7352 42.1778 55.3698 36.8125 48.7514 36.8125C42.1329 36.8125 36.7676 42.1778 36.7676 48.7963C36.7676 55.4148 42.1329 60.7801 48.7514 60.7801Z" stroke="#212851" stroke-width="5.9919" stroke-miterlimit="10" stroke-linecap="round" stroke-linejoin="round"/>
<path d="M8.80469 52.3136V45.2831C8.80469 41.1287 12.2001 37.6934 16.3944 37.6934C23.6246 37.6934 26.5806 32.5803 22.9456 26.3088C20.8684 22.7136 22.1067 18.04 25.7418 15.9628L32.6524 12.0081C35.8082 10.1307 39.8827 11.2491 41.7601 14.4049L42.1995 15.1639C45.7947 21.4354 51.7067 21.4354 55.3417 15.1639L55.7812 14.4049C57.6586 11.2491 61.7331 10.1307 64.8888 12.0081L71.7995 15.9628C75.4346 18.04 76.6729 22.7136 74.5957 26.3088C70.9606 32.5803 73.9166 37.6934 81.1469 37.6934C85.3012 37.6934 88.7366 41.0888 88.7366 45.2831V52.3136C88.7366 56.468 85.3412 59.9033 81.1469 59.9033C73.9166 59.9033 70.9606 65.0164 74.5957 71.2879C76.6729 74.923 75.4346 79.5568 71.7995 81.634L64.8888 85.5886C61.7331 87.4661 57.6586 86.3476 55.7812 83.1919L55.3417 82.4329C51.7466 76.1614 45.8346 76.1614 42.1995 82.4329L41.7601 83.1919C39.8827 86.3476 35.8082 87.4661 32.6524 85.5886L25.7418 81.634C22.1067 79.5568 20.8684 74.8831 22.9456 71.2879C26.5806 65.0164 23.6246 59.9033 16.3944 59.9033C12.2001 59.9033 8.80469 56.468 8.80469 52.3136Z" stroke="#212851" stroke-width="5.9919" stroke-miterlimit="10" stroke-linecap="round" stroke-linejoin="round"/>
</g>
</svg>
