<svg width="61" height="61" viewBox="0 0 61 61" fill="none" xmlns="http://www.w3.org/2000/svg">
<path opacity="0.6" d="M21.8569 34.1309L35.1754 40.7901M21.8569 27.4717L35.1754 20.8125" stroke="#F8F8F8" stroke-width="5.73999" stroke-linecap="round" stroke-linejoin="round"/>
<path d="M15.1977 38.2918C19.3352 38.2918 22.6893 34.9377 22.6893 30.8002C22.6893 26.6627 19.3352 23.3086 15.1977 23.3086C11.0602 23.3086 7.70605 26.6627 7.70605 30.8002C7.70605 34.9377 11.0602 38.2918 15.1977 38.2918Z" stroke="white" stroke-width="5.73999" stroke-linecap="round" stroke-linejoin="round"/>
<path d="M41.8378 51.62C45.9753 51.62 49.3294 48.2658 49.3294 44.1283C49.3294 39.9908 45.9753 36.6367 41.8378 36.6367C37.7003 36.6367 34.3462 39.9908 34.3462 44.1283C34.3462 48.2658 37.7003 51.62 41.8378 51.62Z" stroke="white" stroke-width="5.73999" stroke-linecap="round" stroke-linejoin="round"/>
<path d="M41.8378 24.9754C45.9753 24.9754 49.3294 21.6213 49.3294 17.4838C49.3294 13.3463 45.9753 9.99219 41.8378 9.99219C37.7003 9.99219 34.3462 13.3463 34.3462 17.4838C34.3462 21.6213 37.7003 24.9754 41.8378 24.9754Z" stroke="white" stroke-width="5.73999" stroke-linecap="round" stroke-linejoin="round"/>
</svg>
