<svg width="100" height="99" viewBox="0 0 100 99" fill="none" xmlns="http://www.w3.org/2000/svg">
<g opacity="0.8">
<path d="M9.0957 8.67383H16.2167C20.6365 8.67383 24.1152 12.4798 23.7468 16.8588L20.3501 57.62C19.7771 64.2907 25.0564 70.0202 31.7681 70.0202H75.3531C81.2463 70.0202 86.4029 65.1911 86.853 59.3389L89.0629 28.6452C89.554 21.8517 84.3975 16.3268 77.5631 16.3268H24.729" stroke="#F8F8F8" stroke-width="6.13874" stroke-miterlimit="10" stroke-linecap="round" stroke-linejoin="round"/>
<path opacity="0.4" d="M67.4125 90.5222C70.2378 90.5222 72.5281 88.2319 72.5281 85.4066C72.5281 82.5814 70.2378 80.291 67.4125 80.291C64.5872 80.291 62.2969 82.5814 62.2969 85.4066C62.2969 88.2319 64.5872 90.5222 67.4125 90.5222Z" stroke="#F8F8F8" stroke-width="6.13874" stroke-miterlimit="10" stroke-linecap="round" stroke-linejoin="round"/>
<path opacity="0.4" d="M34.6723 90.5222C37.4975 90.5222 39.7879 88.2319 39.7879 85.4066C39.7879 82.5814 37.4975 80.291 34.6723 80.291C31.847 80.291 29.5566 82.5814 29.5566 85.4066C29.5566 88.2319 31.847 90.5222 34.6723 90.5222Z" stroke="#F8F8F8" stroke-width="6.13874" stroke-miterlimit="10" stroke-linecap="round" stroke-linejoin="round"/>
<path opacity="0.4" d="M37.7422 33.2285H86.8521" stroke="white" stroke-width="6.13874" stroke-miterlimit="10" stroke-linecap="round" stroke-linejoin="round"/>
</g>
</svg>
