<svg width="68" height="62" viewBox="0 0 68 62" fill="none" xmlns="http://www.w3.org/2000/svg">
<g filter="url(#filter0_d_246_2531)">
<path d="M24.4695 0.646484C22.1945 0.646484 20.407 2.20482 20.407 4.08398V41.6215L11.3612 33.9673C9.79036 32.6382 7.19036 32.6382 5.61953 33.9673C4.0487 35.2965 4.0487 37.4965 5.61953 38.8256L21.5987 52.3465C21.9779 52.6673 22.4112 52.8965 22.8987 53.0798C23.3862 53.2631 23.9279 53.3548 24.4695 53.3548C25.0112 53.3548 25.4987 53.2631 26.0404 53.0798C27.0154 52.7131 27.8279 52.0715 28.2612 51.2007C28.4779 50.7882 28.5862 50.3298 28.5862 49.8715V4.08398C28.532 2.20482 26.6904 0.646484 24.4695 0.646484Z" fill="#212851"/>
<path d="M62.3832 15.1757L46.404 1.65482C46.0249 1.33398 45.5915 1.10482 45.104 0.921484C44.129 0.554818 42.9915 0.554818 42.0165 0.921484C41.0415 1.28815 40.229 1.92982 39.7957 2.80065C39.579 3.21315 39.4707 3.62565 39.4707 4.08398V49.9173C39.4707 51.7965 41.3124 53.3548 43.5332 53.3548C45.754 53.3548 47.5957 51.7965 47.5957 49.9173V12.3798L56.6415 20.034C57.454 20.7215 58.4832 21.0423 59.5124 21.0423C60.5415 21.0423 61.5707 20.7215 62.3832 20.034C63.954 18.7048 63.954 16.5048 62.3832 15.1757Z" fill="#212851"/>
</g>
<defs>
<filter id="filter0_d_246_2531" x="0.441406" y="0.646484" width="67.1191" height="60.709" filterUnits="userSpaceOnUse" color-interpolation-filters="sRGB">
<feFlood flood-opacity="0" result="BackgroundImageFix"/>
<feColorMatrix in="SourceAlpha" type="matrix" values="0 0 0 0 0 0 0 0 0 0 0 0 0 0 0 0 0 0 127 0" result="hardAlpha"/>
<feOffset dy="4"/>
<feGaussianBlur stdDeviation="2"/>
<feComposite in2="hardAlpha" operator="out"/>
<feColorMatrix type="matrix" values="0 0 0 0 0 0 0 0 0 0 0 0 0 0 0 0 0 0 0.25 0"/>
<feBlend mode="normal" in2="BackgroundImageFix" result="effect1_dropShadow_246_2531"/>
<feBlend mode="normal" in="SourceGraphic" in2="effect1_dropShadow_246_2531" result="shape"/>
</filter>
</defs>
</svg>
