<svg width="200" height="200" viewBox="0 0 200 200" fill="none" xmlns="http://www.w3.org/2000/svg">
<path d="M114.417 29.25L129.083 58.5833C131.083 62.6667 136.417 66.5833 140.917 67.3333L167.5 71.75C184.5 74.5833 188.5 86.9167 176.25 99.0833L155.583 119.75C152.083 123.25 150.167 130 151.25 134.833L157.167 160.417C161.833 180.667 151.083 188.5 133.167 177.917L108.25 163.167C103.75 160.5 96.3333 160.5 91.75 163.167L66.8333 177.917C49 188.5 38.1666 180.583 42.8333 160.417L48.75 134.833C49.8333 130 47.9166 123.25 44.4166 119.75L23.75 99.0833C11.5833 86.9167 15.5 74.5833 32.5 71.75L59.0833 67.3333C63.5 66.5833 68.8333 62.6667 70.8333 58.5833L85.5 29.25C93.5 13.3333 106.5 13.3333 114.417 29.25Z" fill="#FFD964" stroke="#292D32" stroke-width="1.5" stroke-linecap="round" stroke-linejoin="round"/>
</svg>
