<svg width="100" height="99" viewBox="0 0 100 99" fill="none" xmlns="http://www.w3.org/2000/svg">
<g opacity="0.8">
<path d="M78.9551 78.53C94.9567 62.5283 94.9567 36.6228 78.9551 20.6621" stroke="#F8F8F8" stroke-width="6.13874" stroke-linecap="round" stroke-linejoin="round"/>
<path opacity="0.7" d="M21.0891 20.6621C5.08748 36.6637 5.08748 62.5693 21.0891 78.53" stroke="#F8F8F8" stroke-width="6.13874" stroke-linecap="round" stroke-linejoin="round"/>
<path d="M36.5117 88.1094C40.8907 89.6236 45.4333 90.3604 50.0169 90.3604C54.6005 90.3195 59.1431 89.6236 63.5221 88.1094" stroke="#F8F8F8" stroke-width="6.13874" stroke-linecap="round" stroke-linejoin="round"/>
<path d="M36.5117 11.0851C40.8907 9.57083 45.4333 8.83398 50.0169 8.83398C54.6005 8.83398 59.1431 9.57083 63.5221 11.0851" stroke="#F8F8F8" stroke-width="6.13874" stroke-linecap="round" stroke-linejoin="round"/>
<path opacity="0.4" d="M36.6797 49.5994V42.765C36.6797 34.2526 42.6957 30.774 50.0622 35.0301L55.9962 38.468L61.9304 41.9055C69.2969 46.1617 69.2969 53.119 61.9304 57.3752L55.9962 60.8128L50.0622 64.2506C42.6957 68.5068 36.6797 65.0281 36.6797 56.5157V49.5994Z" stroke="#F8F8F8" stroke-width="6.13874" stroke-miterlimit="10" stroke-linecap="round" stroke-linejoin="round"/>
</g>
</svg>
