<svg width="89" height="89" viewBox="0 0 89 89" fill="none" xmlns="http://www.w3.org/2000/svg">
<g opacity="0.8">
<path opacity="0.4" d="M25.5273 66.6977V59.135" stroke="url(#paint0_linear_84_5071)" stroke-width="5.8" stroke-linecap="round"/>
<path opacity="0.4" d="M44.2324 66.6976V51.5723" stroke="url(#paint1_linear_84_5071)" stroke-width="5.8" stroke-linecap="round"/>
<path opacity="0.4" d="M62.9375 66.6976V43.9731" stroke="#18B5D6" stroke-width="5.8" stroke-linecap="round"/>
<g opacity="0.4">
<path d="M62.9367 21.7588L61.2562 23.7317C51.9399 34.6189 39.445 42.3277 25.5254 45.7985" stroke="#18B5D6" stroke-width="5.8" stroke-linecap="round"/>
<path d="M52.2344 21.7588H62.939V32.4269" stroke="#18B5D6" stroke-width="5.8" stroke-linecap="round" stroke-linejoin="round"/>
</g>
<path d="M33.2714 80.7634H55.1921C73.4594 80.7634 80.7663 73.4565 80.7663 55.1892V33.2685C80.7663 15.0012 73.4594 7.69434 55.1921 7.69434H33.2714C15.0042 7.69434 7.69727 15.0012 7.69727 33.2685V55.1892C7.69727 73.4565 15.0042 80.7634 33.2714 80.7634Z" stroke="#18B5D6" stroke-width="5.8" stroke-linecap="round" stroke-linejoin="round"/>
</g>
<defs>
<linearGradient id="paint0_linear_84_5071" x1="26.6272" y1="59.909" x2="25.1771" y2="60.0068" gradientUnits="userSpaceOnUse">
<stop stop-color="#3AC2C2"/>
<stop offset="1" stop-color="#18B5D6"/>
</linearGradient>
<linearGradient id="paint1_linear_84_5071" x1="45.3323" y1="53.1203" x2="43.8772" y2="53.1694" gradientUnits="userSpaceOnUse">
<stop stop-color="#3AC2C2"/>
<stop offset="1" stop-color="#18B5D6"/>
</linearGradient>
</defs>
</svg>
