<svg width="100" height="99" viewBox="0 0 100 99" fill="none" xmlns="http://www.w3.org/2000/svg">
<path d="M70.4831 75.9117H54.1131L35.9015 88.0254C33.2004 89.826 29.5582 87.9028 29.5582 84.6288V75.9117C17.2807 75.9117 9.0957 67.7268 9.0957 55.4493V30.8941C9.0957 18.6166 17.2807 10.4316 29.5582 10.4316H70.4831C82.7605 10.4316 90.9455 18.6166 90.9455 30.8941V55.4493C90.9455 67.7268 82.7605 75.9117 70.4831 75.9117Z" stroke="#F8F8F8" stroke-width="6.13874" stroke-miterlimit="10" stroke-linecap="round" stroke-linejoin="round"/>
<path opacity="0.4" d="M50.02 46.9768V46.1175C50.02 43.3346 51.7389 41.8612 53.4578 40.6744C55.1357 39.5285 56.8134 38.0553 56.8134 35.3542C56.8134 31.5891 53.7851 28.5605 50.02 28.5605C46.2549 28.5605 43.2266 31.5891 43.2266 35.3542" stroke="#F8F8F8" stroke-width="6.13874" stroke-linecap="round" stroke-linejoin="round"/>
<path opacity="0.4" d="M50.0024 56.7591H50.0393" stroke="white" stroke-width="6.13874" stroke-linecap="round" stroke-linejoin="round"/>
</svg>
