<svg width="200" height="201" viewBox="0 0 200 201" fill="none" xmlns="http://www.w3.org/2000/svg">
<path opacity="0.4" d="M19.575 116.544C22.825 121.211 28.575 123.878 35.1583 123.878H69.325C71.575 123.878 73.6583 124.794 75.075 126.461C76.575 128.128 77.1583 130.461 76.825 132.878L72.575 160.211C70.7417 168.378 76.1583 177.544 84.325 180.294C91.9083 183.128 100.825 179.294 104.408 173.878L139.492 121.628L140.492 119.961V46.2943L139.242 45.0443L112.825 24.6276C109.325 21.1276 101.408 19.2109 95.825 19.2109H63.325C52.1583 19.2109 40.9083 27.6276 38.4083 37.8776L17.9083 100.294C15.825 106.211 16.4083 112.044 19.575 116.544Z" fill="#CE4691" fill-opacity="0.56"/>
<path d="M156.578 146.962H165.161C178.078 146.962 183.328 141.962 183.328 129.628V45.8783C183.328 33.5449 178.078 28.5449 165.161 28.5449H156.578C143.661 28.5449 138.411 33.5449 138.411 45.8783V129.712C138.411 141.962 143.661 146.962 156.578 146.962Z" fill="#FF5C6F"/>
</svg>
