<svg width="87" height="96" viewBox="0 0 87 96" fill="none" xmlns="http://www.w3.org/2000/svg">
<g opacity="0.5">
<path opacity="0.4" d="M56.3197 47.8931C56.3197 55.7952 50.5359 62.1808 43.3786 62.1808C36.2212 62.1808 30.4375 55.7952 30.4375 47.8931C30.4375 39.991 36.2212 33.6055 43.3786 33.6055C50.5359 33.6055 56.3197 39.991 56.3197 47.8931Z" stroke="#212851" stroke-width="5.42224" stroke-linecap="round" stroke-linejoin="round"/>
<path d="M43.3769 80.8903C56.1373 80.8903 68.0301 72.5891 76.308 58.2216C79.5614 52.5944 79.5614 43.1358 76.308 37.5085C68.0301 23.141 56.1373 14.8398 43.3769 14.8398C30.6166 14.8398 18.7238 23.141 10.4459 37.5085C7.19252 43.1358 7.19252 52.5944 10.4459 58.2216C18.7238 72.5891 30.6166 80.8903 43.3769 80.8903Z" stroke="#212851" stroke-width="5.42224" stroke-linecap="round" stroke-linejoin="round"/>
</g>
</svg>
