<svg width="713" height="259" viewBox="0 0 713 259" fill="none" xmlns="http://www.w3.org/2000/svg">
<g clip-path="url(#clip0_5_17505)" filter="url(#filter0_d_5_17505)">
<path d="M164.281 132.422C159.417 148.861 154.689 165.019 150.092 181.214C145.086 198.851 140.205 216.524 135.257 234.177C134.436 237.11 133.399 239.044 129.405 238.847C120.018 238.386 110.594 238.699 100.873 238.699C105.927 221.149 110.854 204.042 115.832 186.757C99.0227 186.757 82.3581 186.757 65.68 186.757C62.682 197.455 59.7372 208.133 56.6872 218.78C55.0399 224.53 53.0891 230.196 51.5356 235.97C51.0139 237.909 50.392 238.762 48.27 238.741C38.5649 238.645 28.8584 238.699 18.3281 238.699C19.2716 234.875 20.0336 231.319 21.029 227.83C26.4341 208.882 31.9038 189.953 37.3378 171.014C43.0467 151.116 48.7654 131.221 54.4119 111.306C55.182 108.589 56.1737 107.091 59.5276 107.197C68.8313 107.489 78.1502 107.298 88.4901 107.298C83.7362 124.052 79.1041 140.376 74.37 157.059C88.649 157.059 102.493 157.059 116.337 157.059C124.17 157.059 124.32 157.104 126.468 149.821C130.625 135.727 134.594 121.578 138.658 107.392C149.364 107.392 159.965 107.392 171.37 107.392C169.028 115.801 166.751 123.979 164.281 132.422Z" fill="white"/>
<path d="M188.416 152.592C198.568 147.607 209.091 145.009 220.033 145.52C231.11 146.038 242.143 147.994 249.464 157.565C252.32 161.299 254.958 165.965 255.594 170.501C258.522 191.382 250.57 208.773 235.507 222.543C224.149 232.926 210.392 238.868 194.424 238.785C185.098 238.736 175.96 238.736 167.508 233.931C158.387 228.746 153.665 220.833 153.238 210.6C152.409 190.712 160.434 174.465 175.021 161.415C178.889 157.956 183.76 155.619 188.416 152.592ZM224.427 182.807C223.838 181.189 223.448 179.46 222.626 177.971C219.299 171.94 210.99 171.897 205.265 173.023C194.306 175.179 188.898 183.138 185.958 192.941C184.279 198.536 183.924 204.284 188.574 209.32C191.936 212.96 203.267 213.137 208.471 210.678C219.954 205.253 223.735 195.164 224.427 182.807Z" fill="white"/>
<path d="M406.645 200.826C409.396 185.132 415.819 171.609 427.728 161.405C437.67 152.885 449.195 147.566 462.551 146.013C472.047 144.909 480.867 145.999 489.327 150.137C498.016 154.387 501.654 162.027 502.225 171.208C502.89 181.914 499.877 191.845 494.938 201.379C475.499 201.379 456.086 201.379 436.715 201.379C435.342 205.987 439.654 211.083 443.796 212.922C453.032 217.022 462.756 216.923 472.541 215.406C477.204 214.683 481.864 213.941 487.05 213.125C485.065 220.054 483.286 226.647 481.205 233.143C480.875 234.175 479.305 235.149 478.113 235.514C464.402 239.713 450.171 239.684 436.256 238.391C423.53 237.209 412.472 231.076 408.172 217.811C406.498 212.648 407.087 206.753 406.645 200.826ZM465.301 183.496C467.115 183.496 468.934 183.582 470.739 183.457C471.556 183.401 472.625 183.161 473.096 182.599C475.737 179.454 473.871 171.815 470.325 169.454C460.248 162.745 443.336 172.138 441.208 183.496C448.994 183.496 456.766 183.496 465.301 183.496Z" fill="white"/>
<path d="M528.664 238.7C521.041 238.7 513.8 238.7 505.725 238.7C511.956 216.832 518.078 195.346 524.322 173.435C519.356 173.435 514.761 173.435 509.711 173.435C511.985 165.442 514.053 157.87 516.389 150.381C516.658 149.518 518.395 148.65 519.494 148.591C523.487 148.378 527.498 148.507 531.457 148.507C540.563 106.874 571.393 99.5048 600.537 107.828C598.25 115.94 595.962 124.057 593.672 132.18C572.644 125.397 564.403 133.281 561.665 148.509C569.186 148.509 576.685 148.509 585.222 148.509C582.855 157.015 580.59 165.155 578.299 173.388C571.071 173.388 564.084 173.477 557.101 173.332C555.073 173.29 554.118 174.026 553.603 175.836C549.203 191.309 544.764 206.77 540.379 222.248C539.257 226.208 538.317 230.219 537.232 234.191C536.428 237.134 535.334 239.761 531.371 238.727C530.644 238.537 529.824 238.7 528.664 238.7Z" fill="white"/>
<path d="M356.061 216.929C359.944 216.151 363.624 215.769 366.953 214.481C370.187 213.23 370.587 209.542 367.797 207.404C365.676 205.779 363.021 204.797 360.514 203.741C353.879 200.946 347.001 198.655 340.586 195.434C333.745 192 332.097 185.863 332.63 178.366C333.268 169.386 337.595 162.529 343.722 156.796C349.463 151.426 356.741 148.361 364.499 147.031C369.867 146.11 375.367 145.422 380.794 145.507C390.016 145.652 399.045 147.373 407.471 151.356C408.474 151.83 409.819 153.504 409.627 154.279C407.835 161.5 405.742 168.646 403.905 175.208C396.406 172.779 389.577 169.972 382.471 168.483C378.01 167.549 373.105 168.333 368.458 168.86C366.075 169.131 364.784 171.146 364.612 173.784C364.45 176.263 365.607 177.624 367.721 178.401C374.488 180.891 381.289 183.292 388.038 185.829C395.759 188.731 401.379 193.85 401.814 202.409C402.155 209.13 399.547 215.453 395.824 221.079C389.101 231.235 378.932 236.269 367.394 237.721C357.611 238.953 347.552 239.183 337.726 238.427C331.583 237.954 325.609 234.926 319.653 232.786C318.831 232.49 317.88 230.513 318.123 229.625C320.06 222.54 322.272 215.529 324.531 208.06C334.11 214.329 344.78 216.099 356.061 216.929Z" fill="white"/>
<path d="M632.902 201.369C635.497 191.941 638.089 182.839 640.766 173.441C636.304 173.441 632.075 173.441 626.85 173.441C629.238 164.887 631.494 156.808 633.784 148.605C638.503 148.605 643.148 148.605 647.912 148.605C650.178 141.027 652.855 133.65 654.429 126.045C655.059 122.998 656.772 122.579 658.618 122.16C667.776 120.079 676.991 118.246 687.207 116.113C684.144 126.931 681.156 137.48 678.058 148.419C685.775 148.419 693.442 148.419 701.916 148.419C700.457 154.009 699.223 159.058 697.806 164.055C696.927 167.151 696.626 171.344 694.499 172.89C692.36 174.445 688.281 173.356 685.052 173.378C681.038 173.406 677.015 173.241 673.016 173.489C672.044 173.55 670.602 174.734 670.31 175.688C667.573 184.627 665.148 193.662 662.414 202.602C660.009 210.468 663.797 213.867 670.745 214.462C674.457 214.78 678.284 213.749 682.059 213.324C682.91 213.229 683.76 213.125 685.5 212.92C684.324 217.199 683.305 220.984 682.233 224.754C681.962 225.709 681.464 226.598 681.171 227.548C680.296 230.383 680.302 234.732 678.45 235.759C674.894 237.732 670.326 238.313 666.12 238.584C659.544 239.009 652.887 239.116 646.324 238.598C636.672 237.836 628.99 231.635 628.921 220.798C628.878 214.053 630.95 207.929 632.902 201.369Z" fill="white"/>
<path d="M301.472 157.649C311.275 148.739 322.624 146.11 335.509 148.139C334.379 152.471 333.249 157.081 331.966 161.647C330.685 166.211 329.251 170.731 327.717 175.826C325.777 175.555 323.571 174.935 321.385 174.996C312.552 175.244 304.561 177.841 297.088 182.828C291.515 186.548 291.821 192.527 290.201 197.584C286.061 210.514 282.783 223.719 279.066 236.787C278.85 237.545 277.799 238.601 277.126 238.61C267.72 238.73 258.313 238.691 248.527 238.691C251.86 226.851 255.045 215.455 258.276 204.072C263.141 186.928 268.082 169.806 272.876 152.643C273.695 149.712 274.751 148.219 278.265 148.397C285.477 148.76 292.72 148.506 300.484 148.506C299.374 152.555 298.374 156.207 297.027 161.122C298.944 159.644 300.106 158.747 301.472 157.649Z" fill="white"/>
<path d="M611.149 199.866C607.417 212.979 603.701 225.768 599.968 238.612C590.299 238.612 580.736 238.612 570.094 238.612C578.715 208.426 587.242 178.571 595.788 148.648C605.522 148.648 615.201 148.648 625.846 148.648C620.88 165.862 616.023 182.702 611.149 199.866Z" fill="white"/>
<path d="M604.122 120.621C607.878 112.612 614.209 108.816 622.574 108.924C633.849 109.069 635.184 115.346 633.087 123.745C630.016 136.047 618.506 140.665 606.974 137.609C604.711 137.01 601.398 131.374 601.877 128.38C602.282 125.842 603.328 123.407 604.122 120.621Z" fill="white"/>
<path d="M391.855 17.5171C393.524 18.0736 393.675 18.1168 394.515 18.3685C405.959 21.7971 416.54 27.0792 426.846 33.0135C431.78 35.8545 436.72 38.7515 441.907 41.0621C444.927 42.407 448.421 42.7544 451.737 43.3509C457.615 44.408 462.583 47.0786 465.36 52.3933C472.02 65.1409 482.561 74.0595 493.96 82.1452C499.566 86.1219 505.488 89.6514 511.224 93.4485C511.93 93.9156 512.625 94.701 512.886 95.4851C514.027 98.9047 515.285 102.323 515.982 105.845C517.172 111.855 513.697 116.283 510.088 120.395C507.755 123.053 505.603 126.003 500.798 124.548C499.184 124.059 496.532 127.135 494.307 128.505C488.277 132.216 481.787 131.861 475.262 130.39C474.15 130.14 473.041 129.145 472.272 128.213C462.84 116.783 450.705 113.485 436.372 115.378C428.987 116.354 421.542 116.277 414.39 112.709C411.929 111.482 408.221 112.071 405.252 112.67C393.225 115.096 381.352 118.106 371.375 125.828C369.452 127.317 367.853 129.217 365.999 130.804C365.251 131.445 364.221 131.755 363.052 131.797C371.388 114.241 387.539 106.361 404.046 98.6602C400.573 91.1065 398.373 83.5482 399.875 74.5374C410.529 99.9598 430.479 106.391 454.725 104.491C454.953 104.136 455.182 103.78 455.411 103.424C451.019 99.7299 446.628 96.0354 441.852 92.0176C442.797 91.874 443.601 91.477 444.038 91.7259C452.505 96.5559 461.011 101.328 469.333 106.401C474.394 109.486 476.825 114.827 479.274 119.918C481.309 124.148 485.401 125.476 489.242 122.648C490.348 121.833 491.41 120.959 493.017 119.702C488.165 118.366 483.719 117.142 479.272 115.918C479.367 115.483 479.461 115.049 479.555 114.614C485.298 112.26 490.784 110.85 496.954 114.599C503.341 118.479 505.189 117.378 508.368 109.361C500.804 111.363 501.971 105.249 500.491 101.128C502.444 101.128 504.318 101.128 506.193 101.128C506.44 100.824 506.688 100.521 506.935 100.218C505.026 98.1146 503.359 95.708 501.167 93.9598C490.11 85.1411 478.778 76.6627 467.858 67.6804C464.717 65.0966 462.298 61.4353 460.14 57.9058C457.337 53.3205 453.118 52.2234 448.328 50.9836C441.887 49.3168 434.391 47.9714 429.775 43.8019C420.682 35.5896 409.646 32.3964 398.901 27.5722C399.36 35.0406 403.969 41.7887 408.678 41.7053C407.637 39.7726 406.683 38.0005 405.734 36.2388C411.116 34.4169 419.818 40.6938 421.152 46.4592C418.849 46.2005 416.665 45.8022 414.471 45.7328C397.019 45.1809 380.445 49.4592 364.35 55.579C345.731 62.6588 327.168 69.9305 308.86 77.7714C288.101 86.6617 267.344 95.513 245.263 100.543C235.213 102.832 224.932 104.269 214.683 105.476C206.059 106.492 197.331 106.624 188.648 107.123C187.402 107.195 186.148 107.133 184.812 106.626C219.178 103.56 251.668 94.5504 281.103 77.7697C273.547 76.4969 265.46 75.58 257.607 73.6883C249.525 71.7413 242.913 66.8928 237.351 60.3564C238.403 60.688 239.57 60.83 240.49 61.3821C246.224 64.8218 252.452 66.4348 259.085 66.705C274.452 67.3311 289.459 64.9509 304.322 61.3334C304.935 61.1841 305.609 61.2904 306.253 61.2557C306.864 61.2228 307.473 61.1611 308.112 60.9093C290.596 59.4729 275.321 53.1635 262.035 40.0208C263.641 40.4455 264.485 40.4611 265.075 40.856C273.903 46.7605 283.799 49.1345 294.229 49.5586C299.534 49.7743 304.902 50.046 310.159 49.5008C320.456 48.4329 330.701 46.8484 340.955 45.3906C343.523 45.0255 346.044 44.3294 348.616 43.4316C331.499 45.3821 314.967 43.9876 299.841 35.0504C296.929 33.3295 294.503 30.7849 292.266 28.1835C296.714 30.1492 301.052 32.4361 305.635 34.0074C313.033 36.5437 320.741 36.2839 328.296 34.8798C341.237 32.4749 354.027 29.1331 367.036 27.2768C374.472 26.2157 382.217 27.312 390.286 27.4445C389.124 24.274 387.922 19.9657 386.465 15.9101C389.121 16.7803 389.572 16.756 391.855 17.5171Z" fill="white"/>
<path d="M440.048 62.6094C438.761 61.5447 437.67 60.6791 436.172 59.4913C452.525 56.3815 454.432 58.4129 460.407 66.0744C456.463 65.8062 452.273 64.6905 448.824 64.456C449.055 64.872 449.049 64.7838 449.511 65.35C449.994 65.9418 452.414 66.7304 454.548 67.4776C447.949 69.7652 443.713 67.4019 440.048 62.6094Z" fill="white"/>
</g>
<defs>
<filter id="filter0_d_5_17505" x="-5.14454" y="0" width="722.5" height="268.426" filterUnits="userSpaceOnUse" color-interpolation-filters="sRGB">
<feFlood flood-opacity="0" result="BackgroundImageFix"/>
<feColorMatrix in="SourceAlpha" type="matrix" values="0 0 0 0 0 0 0 0 0 0 0 0 0 0 0 0 0 0 127 0" result="hardAlpha"/>
<feOffset dy="5.14454"/>
<feGaussianBlur stdDeviation="2.57227"/>
<feComposite in2="hardAlpha" operator="out"/>
<feColorMatrix type="matrix" values="0 0 0 0 0 0 0 0 0 0 0 0 0 0 0 0 0 0 0.25 0"/>
<feBlend mode="normal" in2="BackgroundImageFix" result="effect1_dropShadow_5_17505"/>
<feBlend mode="normal" in="SourceGraphic" in2="effect1_dropShadow_5_17505" result="shape"/>
</filter>
<clipPath id="clip0_5_17505">
<rect width="712.211" height="258.138" fill="white"/>
</clipPath>
</defs>
</svg>
